<?xml version="1.0" encoding="utf-8"?>
<!-- Generator: Adobe Illustrator 15.0.0, SVG Export Plug-In . SVG Version: 6.00 Build 0)  -->
<!DOCTYPE svg PUBLIC "-//W3C//DTD SVG 1.1//EN" "http://www.w3.org/Graphics/SVG/1.1/DTD/svg11.dtd">
<svg version="1.1" id="Layer_1" xmlns="http://www.w3.org/2000/svg" xmlns:xlink="http://www.w3.org/1999/xlink" x="0px" y="0px"
	 width="236px" height="109.5px" viewBox="0 0 236 109.5" enable-background="new 0 0 236 109.5" xml:space="preserve">
<g>
	<path fill="#BABCBE" d="M142.953,93.521c-0.046-0.543-0.165-1.075-0.376-1.598c5.664-0.484,11.138-1.125,16.411-1.892
		c-5.582,0.787-11.358,1.405-17.271,1.858c0.188,0.493,0.305,0.994,0.344,1.495c0.544,6.793-12.437,12.272-28.975,12.314
		c1.548,0.03-12.076,0.001,4.037,0.06C132.145,105.046,143.478,99.85,142.953,93.521z"/>
	<path fill="#BABCBE" d="M233.342,59.173c-0.737-9.08-3.106-10.288-7.59-15.02c-1.705-1.8-3.69-3.558-5.919-5.264
		c5.205,4.632,7.853,9.603,7.857,14.798c0.009,7.053-4.96,13.752-14.302,19.588c9.874-6.033,15.295-13.077,14.683-20.626
		c0.256,0.919,0.624,2.337,0.703,3.267c0.81,9.496-7.392,18.01-22.041,24.714c-14.652,6.706-35.791,11.597-61.088,13.768
		c0.211,0.521-0.516,0.594-0.538,1.147c-0.196,3.225-4.095,6.173-9.913,8.379c25.162-1.769,49.122-6.916,66.97-14.567
		c18.269-7.833,30.263-18.213,30.755-30.351c0,0-0.022-0.031-0.022-0.104c0-0.042,0.022-0.083,0.046-0.136
		c0.022,0.156,0.211,0.459,0.258,0.616c0.081,0.458,0.123,0.945,0.135,1.453C233.379,60.261,233.384,59.705,233.342,59.173z"/>
	<path fill="#BABCBE" d="M122.737,1.926c-1.47-0.03,11.667-0.003-2.975-0.057c-7.966,0.387-14.89,2.033-19.549,4.438
		C105.496,3.646,113.567,1.949,122.737,1.926z"/>
	<path fill="#BABCBE" d="M8.862,53.688c0-0.214,0.01-0.427,0.021-0.641c-0.037,0.64-0.048,1.282,0.002,1.93
		c-0.257-0.919-0.628-2.336-0.703-3.267c-0.768-9.558,7.39-18.155,22.064-24.85c14.674-6.696,35.907-11.522,61.111-13.652
		c-0.211-0.511,0.514-0.584,0.538-1.127c0.2-3.276,4.193-6.266,10.152-8.482c-25.586,1.682-50.084,6.839-68.34,14.588
		C15.418,25.95,3.469,36.41,3,48.61c0,0,0.023,0.032,0.023,0.105C3,48.767,2.977,48.809,2.977,48.85
		c-0.024-0.156-0.212-0.459-0.257-0.616c-0.08-0.46-0.124-0.95-0.135-1.46c-0.044,0.577-0.049,1.135-0.006,1.67
		c0.737,9.131,3.007,10.397,7.425,15.143c4.435,4.764,10.727,9.185,18.551,13.129c-2.428-1.313-4.641-2.68-6.649-4.085
		C13.376,66.972,8.854,60.508,8.862,53.688z"/>
	<path fill="#BABCBE" d="M194.425,80.745c10.001-3.448,18.09-7.57,23.634-12.163c5.483-4.54,8.511-9.566,8.508-14.892
		c-0.007-5.323-3.053-10.345-8.55-14.884c-5.562-4.591-13.671-8.713-23.686-12.16c-9.934-3.42-21.79-6.184-34.968-8.074
		c-12.617-1.809-26.462-2.815-41.005-2.826c-14.583-0.011-28.496,0.97-41.189,2.765c-13.177,1.861-25.054,4.598-35.014,8.008
		c-10.012,3.428-18.089,7.554-23.629,12.159c-5.5,4.572-8.533,9.642-8.539,15.012C9.981,59.06,13,64.135,18.489,68.712
		c5.524,4.609,13.58,8.735,23.569,12.16c9.958,3.414,21.854,6.16,35.067,8.027c12.701,1.795,26.629,2.78,41.233,2.766
		c14.575-0.012,28.442-1.022,41.072-2.836C172.631,86.935,184.496,84.165,194.425,80.745z M118.358,89.43
		c-14.48,0.015-28.306-0.964-40.926-2.749c-13.055-1.845-24.808-4.557-34.647-7.929c-9.746-3.342-17.564-7.333-22.867-11.757
		c-4.968-4.143-7.701-8.642-7.695-13.304c0.005-4.66,2.752-9.154,7.732-13.293c5.322-4.425,13.157-8.414,22.92-11.757
		c9.835-3.368,21.571-6.072,34.601-7.913c12.612-1.781,26.423-2.757,40.882-2.747c14.412,0.01,28.15,1.011,40.69,2.809
		c13.027,1.868,24.746,4.601,34.555,7.978c9.777,3.365,17.647,7.354,22.995,11.767c4.974,4.105,7.728,8.549,7.732,13.157
		c0.004,4.606-2.739,9.056-7.701,13.166c-5.333,4.417-13.184,8.407-22.933,11.767c-9.805,3.38-21.533,6.116-34.582,7.988
		C146.562,88.412,132.801,89.417,118.358,89.43z"/>
	<path fill="#BCBDC0" d="M102.22,3.586c-0.058,0.003-0.114,0.008-0.172,0.012c-5.958,2.217-9.952,5.206-10.152,8.482
		c-0.024,0.543-0.75,0.616-0.538,1.127c-25.205,2.13-46.438,6.956-61.111,13.652C15.572,33.555,7.414,42.151,8.182,51.709
		c0.075,0.931,0.446,2.348,0.703,3.267c-0.05-0.647-0.04-1.29-0.002-1.93c0.02-0.338,0.036-0.677,0.078-1.013
		c1.064-8.392,9.49-16.098,23.183-22.284c15.264-6.895,37.032-11.929,62.235-14.068c-0.021-0.051-0.029-0.103-0.048-0.153
		c-0.174-0.473-0.286-0.953-0.326-1.443c-0.246-2.952,2.103-5.659,6.208-7.778c4.659-2.405,11.583-4.051,19.549-4.438
		c1.124-0.054,2.266-0.086,3.428-0.089c-1.522-0.031-3.069-0.057-4.662-0.063c-0.249-0.001-0.494,0.004-0.741,0.004
		c-2.71,0.242-9.57,0.796-9.665,0.821C107.887,2.615,102.476,3.513,102.22,3.586z"/>
	<path fill="#DBDCDD" d="M2.977,48.85c0-0.042,0.023-0.083,0.046-0.135C3.023,48.642,3,48.61,3,48.61
		c0.469-12.2,12.418-22.66,30.708-30.423c18.255-7.749,42.754-12.907,68.34-14.588c0.058-0.004,0.114-0.009,0.172-0.012
		c0.256-0.073,5.667-0.971,5.902-1.044c0.095-0.025,6.955-0.579,9.665-0.821c0.653-0.058,1.068-0.099,1.086-0.109
		c-47.22,0.272-76.837,8.666-94.371,18.63C8.243,29.483,2.43,40.127,2.584,46.774c0.012,0.511,0.055,1,0.135,1.46
		C2.765,48.391,2.953,48.694,2.977,48.85z"/>
	<path fill="#DBDCDD" d="M129.274,105.751c0.043-0.011,0.083-0.022,0.126-0.033c-1.038,0.04-2.088,0.074-3.146,0.104
		C127.261,105.8,128.271,105.783,129.274,105.751z"/>
	<path fill="#DBDCDD" d="M133.607,104.04c0.53-0.034,1.058-0.079,1.587-0.116c5.818-2.206,9.717-5.154,9.913-8.379
		c0.022-0.554,0.749-0.627,0.538-1.147c25.297-2.171,46.436-7.062,61.088-13.768c14.649-6.704,22.851-15.218,22.041-24.714
		c-0.079-0.93-0.447-2.348-0.703-3.267c0.612,7.549-4.809,14.594-14.683,20.626c-2.562,1.565-5.419,3.063-8.553,4.484
		c-11.303,5.122-26.191,9.243-43.454,11.917c-0.326,0.049-0.648,0.103-0.976,0.15c-0.468,0.07-0.945,0.135-1.418,0.204
		c-5.273,0.767-10.747,1.407-16.411,1.892c0.211,0.522,0.33,1.055,0.376,1.598c0.524,6.329-10.809,11.525-25.83,12.238
		c-1.1,0.053-2.22,0.084-3.357,0.087c1.388,0.026,2.795,0.046,4.204,0.055c2.569-0.215,9.637-0.791,9.733-0.817
		C127.938,105.01,133.347,104.113,133.607,104.04z"/>
	<path fill="#BCBDC0" d="M232.942,58.766c-0.023,0.052-0.046,0.094-0.046,0.136c0,0.073,0.022,0.104,0.022,0.104
		c-0.492,12.137-12.486,22.518-30.755,30.351c-17.848,7.651-41.808,12.799-66.97,14.567c-0.529,0.037-1.057,0.082-1.587,0.116
		c-0.26,0.073-5.669,0.97-5.903,1.043c-0.096,0.026-7.165,0.603-9.733,0.817c-0.558,0.046-0.907,0.077-0.924,0.08
		c3.149-0.016,6.214-0.07,9.208-0.158c1.058-0.03,2.108-0.064,3.146-0.104c40.144-1.52,66.065-9.354,81.971-18.448
		c16.238-9.287,22.106-19.844,21.964-26.436c-0.012-0.508-0.054-0.994-0.135-1.453C233.153,59.225,232.965,58.922,232.942,58.766z"
		/>
	<path d="M143.212,50.182c-0.305,0.013-0.606,0.033-0.906,0.061c-0.2,0.018-0.4,0.044-0.603,0.076
		c-0.198,0.032-0.397,0.072-0.595,0.121c-0.137,0.038-0.274,0.079-0.422,0.127c-0.138,0.045-0.272,0.095-0.401,0.152
		c-0.291,0.136-0.547,0.273-0.791,0.428c-0.246,0.155-0.478,0.328-0.72,0.537v0.001c-0.163,0.139-0.323,0.283-0.479,0.431
		c-0.153,0.146-0.304,0.297-0.445,0.457l-0.002-0.001c-0.49,0.55-0.979,1.159-1.436,1.792c-0.436,0.608-0.845,1.24-1.198,1.866
		l-0.027,0.054c-0.144,0.278-0.307,0.594-0.39,0.879l-0.006,0.025c-0.046,0.188-0.061,0.248,0.088,0.366l0.002,0.001
		c0.002,0.002,0.015,0.009,0.033,0.018c0.044,0.02,0.091,0.038,0.119,0.046v-0.001l0.016,0.005l0.01,0.004l0.015,0.006
		c0.071,0.027,0.146,0.049,0.223,0.067h0.003c0.081,0.019,0.163,0.033,0.241,0.044h0.003l0.01,0h0.003
		c0.16,0.025,0.323,0.04,0.484,0.05c0.156,0.008,0.323,0.011,0.496,0.011v0.001c0.274,0,0.555-0.004,0.836-0.015
		c0.254-0.01,0.518-0.024,0.786-0.045l0.009-0.001h0.015c0.192-0.011,0.387-0.026,0.581-0.049c0.188-0.021,0.379-0.048,0.572-0.083
		v0.001l0.007-0.001l0.006,0l0.01-0.001c0.118-0.019,0.241-0.042,0.364-0.068c0.119-0.025,0.239-0.053,0.362-0.085
		c0.128-0.036,0.252-0.078,0.375-0.121h0.002l0.106-0.037c0.055-0.025,0.102-0.049,0.15-0.074c0.029-0.014,0.092-0.045,0.156-0.081
		c0.098-0.061,0.192-0.125,0.277-0.201c0.084-0.073,0.156-0.153,0.219-0.242h-0.002c0.721-1.122,1.473-2.285,2.24-3.466
		c0.665-1.026,1.334-2.049,2.001-3.074h-1.484C143.809,50.165,143.504,50.169,143.212,50.182z M127.873,63.723l-0.017-0.004
		l-0.008-0.002l-0.017-0.005c-0.207-0.064-0.413-0.138-0.62-0.222c-0.204-0.084-0.404-0.179-0.598-0.287
		c-0.167-0.093-0.326-0.195-0.476-0.306c-0.084-0.062-0.167-0.128-0.249-0.197v0.726c0.029,0.022,0.083,0.041,0.138,0.06
		c0.023,0.007,0.045,0.015,0.094,0.034v-0.001c0.114,0.044,0.284,0.077,0.43,0.106h0.002l0.07,0.015v0.001
		c0.209,0.032,0.422,0.058,0.635,0.079c0.21,0.02,0.429,0.037,0.655,0.049l0.163,0.009c-0.066-0.017-0.133-0.034-0.202-0.053V63.723
		z M174.017,51.575c0.062-0.104,0.121-0.204,0.171-0.298c0.075-0.135,0.145-0.274,0.209-0.416l0.02-0.042v-0.001
		c0.061-0.146,0.162-0.387,0.142-0.471c-0.028-0.039-0.079-0.061-0.144-0.087c-0.021-0.008-0.047-0.018-0.093-0.039
		s-0.102-0.041-0.161-0.059c-0.063-0.02-0.125-0.037-0.177-0.05c-0.103-0.022-0.211-0.042-0.326-0.059
		c-0.12-0.018-0.233-0.032-0.339-0.042c-0.179-0.017-0.354-0.029-0.531-0.034c-0.177-0.006-0.354-0.006-0.532-0.002h-0.011
		l-0.004,0.001h-0.011c-0.245,0-0.487,0.006-0.724,0.019c-0.241,0.013-0.486,0.032-0.729,0.058h-0.002
		c-0.18,0.018-0.354,0.042-0.525,0.074c-0.166,0.03-0.339,0.069-0.521,0.115c-0.128,0.035-0.25,0.073-0.374,0.116
		c-0.124,0.044-0.246,0.092-0.362,0.145c-0.24,0.106-0.455,0.223-0.66,0.357c-0.204,0.132-0.4,0.282-0.601,0.452h0.002
		c-0.103,0.09-0.199,0.178-0.289,0.263H174.017z M161.382,89.677c17.263-2.674,32.151-6.795,43.454-11.917
		c3.134-1.421,5.991-2.919,8.553-4.484c9.342-5.836,14.311-12.535,14.302-19.588c-0.005-5.195-2.652-10.166-7.857-14.798
		c-0.465-0.414-0.942-0.826-1.449-1.235c-5.612-4.53-13.581-8.591-23.687-12.069c-20.48-7.05-47.591-10.944-76.338-10.965
		c-8.188-0.006-16.23,0.309-24.029,0.908c0.019,0.051,0.028,0.103,0.048,0.153c-25.203,2.139-46.971,7.173-62.235,14.068
		C18.451,35.937,10.025,43.642,8.961,52.034c-0.042,0.336-0.059,0.674-0.078,1.013c-0.011,0.213-0.021,0.426-0.021,0.641
		c-0.008,6.821,4.514,13.284,13.043,18.943c5.165,3.428,11.798,6.562,19.788,9.302c20.5,7.029,47.727,10.885,76.667,10.859
		c7.95-0.007,15.766-0.32,23.358-0.902c5.912-0.453,11.688-1.071,17.271-1.858c0.473-0.069,0.95-0.134,1.418-0.204
		C160.733,89.779,161.056,89.726,161.382,89.677z M118.358,91.665c-14.604,0.015-28.532-0.971-41.233-2.766
		c-13.213-1.867-25.109-4.613-35.067-8.027c-9.989-3.425-18.044-7.551-23.569-12.16C13,64.135,9.981,59.06,9.987,53.691
		c0.006-5.371,3.04-10.44,8.539-15.012c5.54-4.605,13.617-8.731,23.629-12.159c9.96-3.411,21.836-6.147,35.014-8.008
		c12.693-1.794,26.606-2.775,41.189-2.765c14.543,0.011,28.388,1.017,41.005,2.826c13.178,1.89,25.034,4.654,34.968,8.074
		c10.015,3.447,18.123,7.569,23.686,12.16c5.497,4.539,8.543,9.561,8.55,14.884c0.003,5.325-3.024,10.352-8.508,14.892
		c-5.544,4.592-13.633,8.714-23.634,12.163c-9.929,3.42-21.794,6.189-34.995,8.084C146.8,90.643,132.933,91.653,118.358,91.665z
		 M203.803,65.273c1.962-1.521,4.062-3.821,4.867-6.204l0.004-0.017c0.468-1.424,0.443-2.944-0.285-4.276
		c-0.518-0.948-1.284-1.634-2.175-2.144c0.691,0.001,1.382,0.002,2.07,0.002c1.417,0,2.648-0.743,3.665-1.665
		c0.776-0.703,1.813-1.85,2.151-2.839l0.034-0.099l0.024-0.101c0.017-0.062,0.031-0.135,0.055-0.193l1.639-4.138h-2.109l0.463-1.167
		h-4.452c-4.676,0-9.352-0.006-14.025-0.01c-3.45-0.003-6.665,1.275-9.323,3.439c-0.266,0.216-0.538,0.455-0.811,0.707
		c-0.038-0.049-0.07-0.101-0.111-0.149l-0.052-0.064l-0.057-0.061c-0.336-0.363-0.693-0.688-1.104-0.964
		c-0.265-0.177-0.539-0.333-0.822-0.478c-0.256-0.251-0.521-0.488-0.825-0.689c-0.413-0.277-0.845-0.52-1.305-0.714
		c-0.559-0.245-1.146-0.422-1.739-0.556c-0.738-0.171-1.487-0.283-2.239-0.354c-1.1-0.104-2.204-0.128-3.308-0.118
		c-1.478,0.013-2.955,0.079-4.422,0.237l-0.01,0.001c-1.212,0.137-2.418,0.345-3.596,0.671c-0.981,0.26-1.94,0.594-2.863,1.018
		l-0.024,0.011c-0.746,0.353-1.433,0.75-2.097,1.173c-0.41-0.816-1.139-1.474-2.052-1.794c-0.484-0.606-1.158-1.078-1.959-1.279
		c-0.183-0.052-0.368-0.093-0.554-0.126l-0.008,0c-0.576-0.1-1.156-0.118-1.739-0.118h-9.392c-1.643,0-3.292,0.082-4.92,0.297
		l-0.029,0.004c-1.287,0.185-2.561,0.46-3.795,0.872c-1.068,0.346-2.101,0.788-3.086,1.328c-0.764,0.419-1.483,0.908-2.18,1.429
		c-0.074-0.09-0.144-0.183-0.225-0.269c-0.3-0.32-0.639-0.601-1.013-0.837c-0.223-0.146-0.457-0.273-0.697-0.389
		c-0.284-0.294-0.6-0.558-0.95-0.778c-0.382-0.25-0.789-0.456-1.217-0.618c-0.426-0.171-0.867-0.312-1.313-0.417l-0.011-0.002
		c-1.143-0.263-2.339-0.362-3.513-0.351c-3.96,0-7.922-0.011-11.883-0.011h-1.64l-0.896,1.375c-0.48,0.739-0.97,1.471-1.437,2.22
		l-0.066,0.106l-0.059,0.114c-0.271,0.528-0.449,1.055-0.524,1.579c-0.347-1.538-1.453-2.737-2.87-3.398
		c-0.619-0.637-1.404-1.128-2.274-1.421c-1.766-0.59-3.779-0.575-5.624-0.575c-1.104,0-2.207,0-3.305,0.127
		c-0.949,0.108-1.842,0.328-2.696,0.764c-0.316,0.161-0.617,0.346-0.907,0.55c-0.717-0.516-1.559-0.839-2.434-1.042
		c-1.565-0.364-3.204-0.399-4.805-0.399c-1.873,0-3.872-0.004-5.633,0.714c-0.866-0.458-1.884-0.557-2.871-0.557h-6.593
		c0.15-0.235,0.303-0.468,0.453-0.704c0.54-0.829,1.072-1.663,1.624-2.484c0.12-0.179,0.244-0.375,0.386-0.537l0.023-0.027
		c0.098-0.114,0.192-0.23,0.333-0.293l0.033-0.016c0.553-0.255,1.356-0.377,1.958-0.464c1.095-0.156,2.275-0.054,3.385-0.063
		l1.564-0.011l0.894-1.285c0.495-0.71,0.949-1.448,1.411-2.18l2.928-4.64h-2.382l0.736-1.167h-5.486
		c-8.128,0-16.256-0.011-24.383-0.011h-1.784l-0.863,1.56c-0.416,0.751-0.835,1.5-1.257,2.25l-2.577,4.59l2.323-0.037l-0.676,1.205
		l4-0.065c-1.726,2.683-3.461,5.36-5.223,8.021c-1.88,2.839-3.772,5.67-5.722,8.463c-0.549,0.783-1.104,1.563-1.682,2.327
		c-0.292,0.385-0.588,0.772-0.913,1.132c-0.031,0.034-0.065,0.073-0.1,0.111c-0.937,0.355-2.052,0.471-3.032,0.617
		c-0.561,0.078-1.119,0.171-1.679,0.25l-0.041,0.005c-0.445,0.07-0.891,0.132-1.333,0.219l-1.235,0.241l-0.7,1.045
		c-0.39,0.583-0.786,1.163-1.18,1.743l-3.217,4.72l2.439,0.004l-0.793,1.163l5.711,0.009c8.101,0.01,16.202,0.01,24.302-0.01
		l1.596-0.004l0.356-0.521c0.752,0.544,1.713,0.787,2.702,0.787h8.259l0.908-1.213c0.119-0.159,0.235-0.318,0.348-0.48l0.248-0.358
		c0.31,0.234,0.661,0.412,1.033,0.547c0.852,1.083,2.255,1.504,3.679,1.504h8.212l0.86-1.531c0.036-0.054,0.079-0.108,0.116-0.163
		l0.258-0.373c0.306,0.229,0.643,0.417,1.01,0.553c0.829,1.06,2.237,1.502,3.646,1.502h8.121l0.906-1.213
		c0.119-0.158,0.236-0.316,0.349-0.479l0.562-0.816c0.197,0.126,0.4,0.24,0.611,0.341c0.214,0.217,0.448,0.426,0.716,0.622
		c0.397,0.298,0.839,0.532,1.301,0.72c0.446,0.182,0.907,0.326,1.375,0.432c0.621,0.152,1.254,0.246,1.891,0.3
		c0.802,0.069,1.608,0.094,2.414,0.094c0.84,0,1.681-0.015,2.521-0.069c0.563-0.04,1.124-0.101,1.676-0.213l0.008-0.001
		c0.523-0.111,1.017-0.261,1.499-0.462c0.8,0.47,1.572,0.528,2.621,0.566l0.054,0.002h0.054c1.502,0,3.004-0.004,4.507-0.008
		c0.127,0.616,0.408,1.185,0.833,1.655c0.189,0.21,0.398,0.385,0.625,0.552l0.062,0.048l0.067,0.044
		c0.253,0.169,0.519,0.298,0.797,0.423c0.009,0.003,0.018,0.006,0.027,0.01c0.024,0.029,0.043,0.061,0.069,0.089
		c0.189,0.211,0.398,0.386,0.624,0.556l0.062,0.045l0.066,0.044c0.254,0.169,0.518,0.299,0.798,0.424
		c0.377,0.169,0.776,0.282,1.184,0.367c0.44,0.104,0.887,0.173,1.335,0.234h0.009c0.765,0.097,1.537,0.146,2.311,0.188l0.026,0.002
		c1.372,0.058,2.743,0.073,4.114,0.064c1.824-0.011,3.651-0.048,5.473-0.15h0.008c1.137-0.072,2.271-0.177,3.395-0.376l0.041-0.008
		c0.688-0.133,1.37-0.281,2.037-0.49c0.554-0.171,1.096-0.367,1.62-0.616c0.998-0.461,1.88-1.046,2.7-1.776
		c0.505-0.449,0.972-0.933,1.403-1.449l0.027-0.033l0.026-0.031c0.521-0.656,1.021-1.326,1.484-2.022l0.025-0.037
		c0.575-0.896,1.151-1.791,1.728-2.686c0.233,0.455,0.519,0.884,0.862,1.27c0.553,0.627,1.23,1.128,1.979,1.498
		c0.677,0.656,1.491,1.16,2.379,1.479c0.589,0.216,1.193,0.372,1.81,0.491c0.861,0.166,1.734,0.256,2.608,0.316l0.028,0.003
		c1.342,0.083,2.686,0.11,4.029,0.11c1.421,0,2.848-0.031,4.267-0.121c0.943-0.061,1.887-0.155,2.82-0.305
		c0.577-0.094,1.149-0.208,1.711-0.37l0.04-0.013l0.012-0.003c0.317-0.098,0.628-0.213,0.937-0.334l0.105-0.039l0.103-0.049
		c0.111-0.053,0.222-0.11,0.328-0.17c0.713,0.908,1.849,1.402,3.088,1.395h16.267C198.128,68.604,201.252,67.251,203.803,65.273z
		 M54.072,63.684c-0.214,0.355-0.44,0.713-0.687,1.074l-0.264,0.388l-0.073,0.108h-0.13l-0.47,0.002
		c-4.049,0.01-8.097,0.016-12.146,0.017c-4.049,0.001-8.097-0.002-12.146-0.006l-1.68-0.003H26.01l0.262-0.385l0.945-1.388
		c0.407-0.597,0.814-1.194,1.19-1.757l0.206-0.307l0.057-0.085l0.102-0.02l0.363-0.071c0.327-0.064,0.646-0.112,0.965-0.161
		c0.193-0.029,0.207-0.03,0.295-0.044l0.001-0.001l0.014-0.002h0.003c0.23-0.032,0.514-0.076,0.799-0.12
		c0.279-0.043,0.559-0.086,0.883-0.131c0.104-0.016,0.255-0.038,0.412-0.06c1.09-0.157,2.203-0.319,3.209-0.732v-0.001
		c0.25-0.102,0.435-0.307,0.63-0.522l0.013-0.015c0.18-0.198,0.353-0.404,0.52-0.613c0.153-0.191,0.324-0.415,0.498-0.644
		c0.306-0.403,0.595-0.797,0.874-1.183c0.289-0.402,0.572-0.803,0.852-1.203c0.961-1.375,1.929-2.792,2.9-4.234
		c0.969-1.437,1.914-2.857,2.849-4.269c1.258-1.902,2.499-3.794,3.72-5.678c1.21-1.866,2.433-3.769,3.667-5.712h0.001l0.008-0.015
		l0.005-0.007l0.01-0.015c0.048-0.069,0.12-0.206,0.165-0.342c0.012-0.036,0.021-0.068,0.027-0.096
		c-0.106-0.052-0.292-0.099-0.507-0.141c-0.514-0.1-1.146-0.142-1.38-0.15c-0.62-0.026-1.233-0.012-1.849,0.003
		c-0.208,0.005-0.416,0.009-0.632,0.013l-1.548,0.025l-0.429,0.006l0.21-0.373l0.757-1.35c0.286-0.509,0.552-0.985,0.632-1.129
		c0.244-0.433,0.463-0.827,0.631-1.128l0.253-0.459l0.071-0.127h0.669v-0.001c2.526,0,7.358,0.003,12.191,0.006
		c3.305,0.002,6.668,0.004,12.192,0.004v0.001h2.061l-0.238,0.377l-0.862,1.364l-0.241,0.385c-0.367,0.584-0.735,1.172-1.122,1.726
		l-0.263,0.378l-0.073,0.104l-0.126,0l-0.461,0.004h-0.001c-0.339,0.002-0.683-0.003-1.029-0.008
		c-0.879-0.014-1.776-0.028-2.611,0.091c-0.397,0.057-0.841,0.13-1.275,0.23c-0.426,0.099-0.845,0.224-1.199,0.386h-0.001
		l-0.01,0.005l-0.002,0.001c-0.211,0.094-0.385,0.202-0.542,0.33c-0.16,0.129-0.306,0.282-0.459,0.463l-0.001,0l-0.008,0.009
		l-0.001,0.002c-0.187,0.214-0.354,0.462-0.517,0.705l-0.014,0.021c-0.419,0.624-0.831,1.259-1.241,1.893
		c-0.135,0.208-0.268,0.415-0.403,0.622c-1.704,2.667-3.402,5.288-5.1,7.907c-0.722,1.114-1.442,2.225-2.348,3.625
		c-1.061,1.643-2.086,3.236-3.065,4.768c-0.938,1.467-1.882,2.956-2.835,4.467c0.686,0.096,1.389,0.154,2.086,0.213
		c0.145,0.011,0.286,0.023,0.665,0.058v-0.001l0.282,0.025c0.351,0.03,0.701,0.062,1.077,0.104l1.325,0.147l0.369,0.041
		l-0.179,0.323l-0.646,1.167C54.499,62.955,54.289,63.323,54.072,63.684z M62.112,48.489c-2.29,3.561-4.579,7.122-6.891,10.667
		l-0.012-0.001c1.211-1.899,2.426-3.797,3.649-5.69c1.073-1.661,2.15-3.32,3.225-4.979L62.112,48.489z M93.39,62.801l-0.029,0.044
		h-0.001l-0.01,0.015l-0.005,0.008l-0.01,0.014v0.001l-0.044,0.063l0.852,0.136l0.387,0.062l-0.222,0.322l-0.803,1.162
		c-0.043,0.064-0.095,0.136-0.152,0.213v0.001c-0.068,0.093-0.112,0.152-0.153,0.207h-0.001l-0.266,0.357l-0.075,0.099h-7.173
		c-0.505,0-1.115-0.071-1.601-0.326c-0.391-0.203-0.701-0.519-0.824-1.001c-0.036-0.136-0.05-0.272-0.046-0.408
		c0.004-0.14,0.028-0.278,0.069-0.41c0.048-0.172,0.129-0.35,0.225-0.52c0.119-0.21,0.26-0.411,0.385-0.573
		c0.831-1.286,1.659-2.574,2.489-3.86c1.511-2.35,3.024-4.698,4.604-7.129l0.002-0.002l0.004-0.007l0.001-0.002l0.004-0.006h0
		c0.098-0.144,0.23-0.351,0.354-0.564c0.033-0.058,0.065-0.115,0.096-0.173c-0.098-0.013-0.204-0.023-0.313-0.032
		c-0.391-0.03-0.806-0.035-0.977-0.035c-0.496,0-1.048,0.013-1.577,0.093c-0.518,0.077-1.016,0.219-1.423,0.477
		c-0.255,0.162-0.48,0.367-0.684,0.597c-0.208,0.235-0.392,0.495-0.564,0.759c-0.622,0.955-1.246,1.91-1.869,2.865
		c-1.647,2.524-3.294,5.05-4.932,7.58l-0.02,0.034v0.001c-0.022,0.038-0.047,0.083-0.075,0.131l0.805,0.18l0.357,0.08l-0.208,0.3
		l-0.75,1.087c-0.016,0.023-0.04,0.057-0.065,0.09c-0.048,0.068-0.1,0.14-0.137,0.207l-0.254,0.454l-0.071,0.126h-7.107
		c-0.434,0-0.935-0.044-1.377-0.207c-0.473-0.175-0.875-0.482-1.069-1.005c-0.058-0.157-0.088-0.32-0.094-0.486
		c-0.006-0.169,0.015-0.337,0.059-0.5h0.001c0.044-0.171,0.125-0.351,0.22-0.521c0.113-0.201,0.25-0.396,0.377-0.554
		c1.118-1.733,2.236-3.469,3.353-5.204c1.119-1.739,2.236-3.477,3.355-5.216c0.036-0.059,0.071-0.117,0.092-0.152
		c0.025-0.042,0.054-0.091,0.089-0.153v0.001l0.005-0.011l0.003-0.004l0.006-0.011l0.001-0.001l0.106-0.179
		c0.156-0.262,0.315-0.525,0.469-0.801c-0.054-0.007-0.109-0.014-0.165-0.02c-0.284-0.029-0.586-0.037-0.724-0.037
		c-1.509,0-2.382,0.059-3.064,0.417c-0.683,0.358-1.219,1.041-2.054,2.287c-1.025,1.572-2.07,3.186-3.134,4.837
		c-1.077,1.672-2.114,3.291-3.109,4.854l-0.012,0.016l-0.006,0.011l-0.011,0.017l-0.043,0.063l0.852,0.136l0.386,0.061l-0.221,0.322
		l-0.803,1.162c-0.053,0.078-0.104,0.147-0.153,0.214c-0.03,0.042-0.09,0.121-0.154,0.208l-0.266,0.356l-0.075,0.099h-7.314
		c-0.432,0-0.901-0.063-1.301-0.256c-0.337-0.162-0.623-0.415-0.796-0.794c-0.082-0.176-0.128-0.362-0.141-0.549
		c-0.014-0.192,0.006-0.388,0.057-0.579c0.043-0.188,0.122-0.382,0.215-0.563c0.09-0.178,0.196-0.349,0.291-0.492
		c2.66-4.052,5.264-8.103,7.869-12.152c0.63-0.981,1.262-1.961,1.892-2.941l0.013-0.019l0.007-0.01l0.014-0.018h-0.001l0.046-0.065
		l-0.919-0.146l-0.404-0.065l0.245-0.327l0.881-1.18l0.001,0.001v-0.001l0.001-0.002c0.085-0.113,0.171-0.226,0.253-0.348
		l0.266-0.384l0.074-0.106h0.596v0h6.183c0.436,0,0.967,0.008,1.458,0.137c0.476,0.126,0.902,0.363,1.153,0.807
		c0.042-0.028,0.082-0.055,0.125-0.082v-0.001c0.128-0.083,0.261-0.16,0.399-0.233c1.483-0.787,3.52-0.785,5.162-0.784h0.207
		c0.699,0,1.45,0.007,2.188,0.054c0.751,0.047,1.499,0.135,2.189,0.294c0.501,0.117,1.008,0.284,1.458,0.544
		c0.463,0.268,0.864,0.63,1.134,1.13c0.012,0.025,0.026,0.05,0.039,0.075l0.379-0.292c0.229-0.177,0.445-0.343,0.634-0.487
		c0.156-0.12,0.314-0.233,0.472-0.338c0.165-0.108,0.333-0.207,0.51-0.296c0.329-0.168,0.665-0.29,1.009-0.381
		c0.341-0.09,0.689-0.147,1.045-0.19c0.989-0.113,2.036-0.113,3.035-0.113v-0.001h0.055v0.001h0.157
		c1.502-0.001,3.436-0.001,4.866,0.476c0.604,0.203,1.176,0.55,1.601,1.017c0.386,0.425,0.652,0.949,0.717,1.559
		c0.018,0.165,0.019,0.333,0.003,0.5c-0.014,0.167-0.045,0.332-0.092,0.493c-0.27,0.914-0.793,1.756-1.285,2.545l-0.012,0.02
		l-0.001,0.001l-0.005,0.008l-0.001,0.004l-0.005,0.008l-0.001,0C98.509,54.87,95.949,58.835,93.39,62.801z M120.048,64.533
		L120.048,64.533c-0.05,0.071-0.101,0.143-0.136,0.206l-0.254,0.454l-0.071,0.126h-0.666c-1.506,0-2.393,0.002-3.279,0.004
		c-1.297,0.005-2.579,0.006-3.279,0.006h-0.025l-0.016,0c-0.085-0.003-0.155-0.006-0.224-0.007
		c-0.716-0.019-1.264-0.035-1.909-0.593l-0.103-0.089l-0.049-0.057l-0.07-0.115c-0.024-0.038-0.046-0.077-0.065-0.116
		c-0.038,0.026-0.074,0.051-0.112,0.076c-0.117,0.08-0.233,0.152-0.348,0.224l-0.028,0.016l-0.016,0.008l-0.029,0.016
		c-0.269,0.138-0.526,0.25-0.792,0.343c-0.266,0.092-0.536,0.165-0.832,0.229h-0.002c-0.241,0.049-0.477,0.087-0.709,0.114
		c-0.233,0.028-0.47,0.048-0.71,0.064h-0.001c-0.389,0.025-0.791,0.042-1.198,0.051c-0.428,0.01-0.821,0.014-1.195,0.014
		c-0.36,0-0.734-0.006-1.125-0.02c-0.386-0.015-0.762-0.037-1.126-0.068c-0.271-0.023-0.542-0.054-0.813-0.096h-0.001
		c-0.266-0.041-0.536-0.094-0.806-0.16c-0.19-0.043-0.375-0.092-0.554-0.148c-0.185-0.059-0.367-0.123-0.546-0.196
		c-0.151-0.062-0.305-0.131-0.453-0.212c-0.151-0.082-0.296-0.172-0.432-0.274V64.33c-0.554-0.405-0.914-0.84-1.121-1.343
		c-0.207-0.501-0.259-1.059-0.197-1.711c0.03-0.307,0.102-0.605,0.172-0.896l0.018-0.073l0.005-0.021l0.002-0.011l0.006-0.021
		c0.103-0.354,0.234-0.696,0.382-1.029c0.148-0.334,0.313-0.656,0.483-0.97c0.21-0.386,0.443-0.764,0.686-1.132
		c0.242-0.363,0.5-0.723,0.762-1.074l0.006-0.007l0.002-0.003l0.005-0.007l0.001-0.001c0.274-0.351,0.561-0.697,0.859-1.034
		c0.284-0.321,0.576-0.633,0.875-0.93l0.006-0.007l0.003-0.003l0.007-0.006l0.001-0.001c0.756-0.718,1.471-1.274,2.246-1.725
		c0.774-0.45,1.606-0.794,2.594-1.088h0.001l0.015-0.004l0.002-0.001c0.362-0.1,0.728-0.182,1.097-0.25
		c0.375-0.07,0.743-0.124,1.106-0.169h0.002l0.013-0.001h0.002c0.506-0.055,1.02-0.093,1.537-0.118
		c0.524-0.025,1.037-0.035,1.537-0.035h5.363c0.154,0,0.282-0.002,0.385-0.004c0.121-0.003,0.248-0.008,0.378-0.014v-0.001
		l0.012-0.001c0.091-0.007,0.196-0.017,0.266-0.036l0.049-0.014l0.028-0.005l0.05-0.007c0.038-0.006,0.079-0.018,0.122-0.031
		c0.021-0.009,0.054-0.031,0.091-0.058c0.054-0.04,0.107-0.084,0.143-0.121c0.047-0.062,0.102-0.135,0.157-0.213
		c-0.232-0.012-0.466-0.012-0.695-0.01h-0.167v0.001h-6.863c-0.194,0-0.412-0.004-0.634-0.021c-0.222-0.018-0.445-0.047-0.646-0.096
		l-0.02-0.005l-0.011-0.003l-0.02-0.005v-0.001c-0.199-0.06-0.368-0.112-0.529-0.19c-0.171-0.083-0.329-0.193-0.497-0.364
		l-0.051-0.053l-0.026-0.031l-0.042-0.061c-0.271-0.386-0.352-0.754-0.315-1.123c0.033-0.351,0.173-0.689,0.352-1.038l0.018-0.033
		l0.01-0.019l0.019-0.031c0.335-0.538,0.675-1.055,1.014-1.573c0.177-0.27,0.356-0.544,0.404-0.617l0.263-0.405l0.073-0.112h0.616
		c1.982,0,3.965,0.003,5.948,0.005c1.612,0.002,3.253,0.003,5.946,0.003v0.001c0.524-0.004,1.069,0.016,1.609,0.068
		c0.501,0.049,0.996,0.125,1.465,0.232h0.002c0.173,0.042,0.354,0.092,0.539,0.152c0.181,0.057,0.359,0.121,0.529,0.189
		c0.156,0.059,0.307,0.125,0.451,0.196c0.146,0.074,0.285,0.157,0.426,0.248c0.121,0.075,0.238,0.16,0.348,0.251
		c0.113,0.092,0.218,0.19,0.313,0.294c0.274,0.289,0.48,0.606,0.612,0.954c0.129,0.338,0.186,0.701,0.164,1.09l-0.002,0.015
		l-0.001,0.009v0.016c-0.022,0.209-0.055,0.397-0.105,0.58v0.001c-0.048,0.18-0.113,0.36-0.196,0.55l-0.005,0.009v0.002
		c-0.054,0.12-0.111,0.236-0.168,0.35c-0.061,0.118-0.121,0.23-0.182,0.337c-0.082,0.144-0.17,0.297-0.267,0.458
		c-0.085,0.144-0.177,0.294-0.273,0.449l-0.003,0.001l-0.006,0.013l-0.001,0.003c-1.279,1.99-2.556,3.979-3.834,5.97
		c-1.25,1.948-2.503,3.897-3.755,5.845l-0.008,0.013l-0.006,0.008l-0.009,0.014v0l-0.051,0.074h-0.001l-0.031,0.044l0.77,0.187
		l0.349,0.085l-0.204,0.294l-0.734,1.064C120.097,64.465,120.073,64.498,120.048,64.533z M151.851,55.682
		c-1.774,2.751-3.548,5.504-5.32,8.259v0.001l-0.008,0.012v0.002c-0.218,0.323-0.442,0.645-0.679,0.963
		c-0.236,0.319-0.475,0.629-0.714,0.931l-0.009,0.009l-0.004,0.006l-0.006,0.01h-0.002c-0.192,0.227-0.387,0.442-0.582,0.647
		c-0.205,0.212-0.417,0.415-0.631,0.606c-0.347,0.309-0.697,0.581-1.068,0.825c-0.37,0.244-0.756,0.457-1.178,0.651
		c-0.221,0.104-0.448,0.2-0.685,0.288c-0.236,0.087-0.468,0.164-0.697,0.235c-0.3,0.093-0.606,0.175-0.916,0.247
		c-0.307,0.071-0.613,0.133-0.916,0.191h-0.002l-0.013,0.002l-0.003,0.002c-0.521,0.092-1.052,0.163-1.586,0.219
		c-0.532,0.056-1.062,0.096-1.59,0.129h-0.002c-0.885,0.05-1.784,0.085-2.688,0.109c-0.895,0.023-1.793,0.033-2.686,0.039
		c-0.67,0.005-1.337,0.003-2.006-0.006c-0.676-0.01-1.346-0.028-2.01-0.057h-0.001l-0.009-0.001c-0.37-0.019-0.736-0.04-1.083-0.067
		c-0.354-0.027-0.718-0.06-1.09-0.108c-0.2-0.025-0.398-0.055-0.589-0.086c-0.191-0.033-0.385-0.07-0.582-0.116
		c-0.135-0.029-0.276-0.062-0.415-0.103c-0.143-0.042-0.283-0.09-0.414-0.148c-0.083-0.038-0.167-0.075-0.257-0.119
		c-0.089-0.046-0.177-0.094-0.262-0.15l-0.019-0.012l-0.011-0.009l-0.019-0.013v-0.002c-0.058-0.042-0.115-0.086-0.176-0.137h-0.001
		c-0.058-0.05-0.117-0.105-0.173-0.167c-0.113-0.123-0.206-0.263-0.277-0.414c-0.068-0.147-0.115-0.309-0.138-0.476
		c-0.093-0.72,0.262-1.238,0.62-1.76l0.001,0l0.013-0.021c0.33-0.524,0.576-0.913,0.82-1.297c0.394-0.619,0.787-1.237,1.157-1.83
		l0.261-0.419l0.072-0.117h0.63v0.001h0.844V62.43h0.849c-0.097-0.104-0.188-0.212-0.273-0.324
		c-0.106-0.143-0.205-0.296-0.291-0.456c-0.089-0.169-0.16-0.339-0.219-0.513c-0.054-0.171-0.098-0.348-0.132-0.533
		c-0.033-0.194-0.056-0.386-0.066-0.577c-0.011-0.193-0.009-0.385,0.003-0.579l0.003-0.03l0.002-0.018l0.004-0.03
		c0.028-0.209,0.064-0.414,0.102-0.611c0.038-0.189,0.082-0.385,0.134-0.589l0.006-0.025l0.004-0.013l0.006-0.023
		c0.194-0.61,0.43-1.202,0.695-1.781c0.265-0.571,0.562-1.132,0.881-1.688v-0.002l0.008-0.011v-0.001
		c0.386-0.646,0.795-1.29,1.228-1.911c0.434-0.624,0.895-1.233,1.383-1.807c0.412-0.501,0.841-0.985,1.292-1.446
		c0.454-0.463,0.927-0.906,1.431-1.326v-0.002c0.4-0.332,0.817-0.645,1.254-0.941c0.437-0.295,0.881-0.569,1.338-0.819
		c0.446-0.244,0.897-0.465,1.356-0.661c0.457-0.197,0.927-0.371,1.411-0.527c0.567-0.19,1.142-0.348,1.72-0.479
		c0.581-0.131,1.164-0.235,1.754-0.319h0.002l0.01-0.002c0.771-0.102,1.552-0.172,2.332-0.217c0.789-0.045,1.572-0.065,2.338-0.065
		h9.392v0.001c0.23,0,0.468,0.003,0.701,0.015c0.243,0.013,0.484,0.036,0.714,0.075c0.061,0.011,0.127,0.024,0.2,0.041h0.002
		c0.06,0.014,0.124,0.03,0.188,0.05c0.148,0.033,0.287,0.087,0.42,0.155c0.309,0.161,0.568,0.413,0.736,0.71
		c0.169,0.306,0.239,0.659,0.158,1.015c-0.024,0.112-0.064,0.223-0.12,0.33c-0.049,0.12-0.105,0.221-0.17,0.333l-0.013,0.021
		c-0.081,0.146-0.169,0.295-0.259,0.446l-0.059,0.098l-0.008,0.017l-0.007,0.008l-0.011,0.016
		C155.459,50.095,153.677,52.852,151.851,55.682z M174.353,63.108h-0.002c-0.093,0.125-0.188,0.241-0.284,0.353
		c-0.101,0.113-0.202,0.223-0.313,0.331l-0.001,0.001l-0.007,0.006l-0.005,0.006l-0.008,0.006c-0.163,0.152-0.314,0.278-0.476,0.389
		c-0.163,0.114-0.336,0.212-0.537,0.309l-0.027,0.014l-0.02,0.006l-0.029,0.013c-0.136,0.052-0.27,0.103-0.396,0.149
		c-0.134,0.049-0.269,0.094-0.407,0.138l-0.003,0l-0.007,0.003h-0.002l-0.01,0.002l-0.001,0.001
		c-0.24,0.069-0.489,0.129-0.744,0.183c-0.244,0.052-0.495,0.097-0.746,0.139c-0.441,0.07-0.879,0.127-1.317,0.173
		c-0.443,0.046-0.883,0.082-1.321,0.11c-0.681,0.043-1.374,0.072-2.075,0.09c-0.688,0.018-1.381,0.027-2.073,0.027
		c-0.628,0-1.276-0.006-1.955-0.023c-0.658-0.016-1.312-0.044-1.955-0.083h-0.003l-0.008,0c-0.396-0.029-0.795-0.062-1.191-0.108
		c-0.398-0.046-0.798-0.104-1.192-0.181c-0.259-0.05-0.516-0.106-0.77-0.175c-0.257-0.069-0.51-0.146-0.759-0.237h-0.002
		c-0.373-0.133-0.736-0.313-1.07-0.534c-0.319-0.212-0.613-0.463-0.87-0.754h0.002c-0.264-0.292-0.479-0.615-0.649-0.962
		c-0.165-0.344-0.283-0.714-0.348-1.098c-0.067-0.417-0.075-0.835-0.038-1.248c0.038-0.409,0.119-0.814,0.227-1.212l0.005-0.009
		l0.002-0.007l0.003-0.01c0.156-0.513,0.348-1.015,0.567-1.505c0.219-0.492,0.461-0.969,0.714-1.43
		c0.321-0.605,0.676-1.206,1.056-1.792c0.393-0.604,0.81-1.19,1.242-1.748c0.415-0.549,0.856-1.094,1.317-1.625
		c0.439-0.503,0.895-0.989,1.364-1.449c0.727-0.72,1.44-1.327,2.202-1.862c0.763-0.537,1.574-1.002,2.49-1.436l0.001-0.001
		l0.012-0.004c0.415-0.191,0.839-0.36,1.267-0.51c0.429-0.151,0.862-0.282,1.301-0.399c0.543-0.149,1.09-0.272,1.646-0.374
		c0.554-0.101,1.109-0.18,1.666-0.243c0.695-0.074,1.404-0.128,2.117-0.165c0.702-0.036,1.415-0.054,2.118-0.061
		c0.52-0.004,1.039-0.001,1.555,0.015c0.522,0.016,1.042,0.045,1.56,0.094c0.334,0.031,0.668,0.072,1.002,0.125
		c0.34,0.053,0.672,0.116,0.996,0.191v0.001c0.241,0.054,0.481,0.116,0.714,0.188c0.239,0.075,0.476,0.162,0.701,0.262
		c0.179,0.075,0.348,0.158,0.513,0.248c0.163,0.091,0.326,0.191,0.488,0.3c0.15,0.1,0.283,0.206,0.407,0.317
		c0.122,0.112,0.24,0.229,0.356,0.356l0.017,0.018l0.011,0.01l0.015,0.019c0.219,0.265,0.389,0.539,0.516,0.832
		c0.128,0.288,0.214,0.593,0.266,0.925h0.002c0.033,0.184,0.05,0.371,0.054,0.557c0.005,0.188-0.004,0.368-0.018,0.543l-0.003,0.035
		l-0.003,0.019l-0.005,0.033c-0.034,0.22-0.067,0.426-0.109,0.625c-0.044,0.208-0.096,0.415-0.162,0.626v0.002l-0.005,0.011v0.001
		c-0.096,0.292-0.204,0.586-0.326,0.878c-0.12,0.295-0.252,0.584-0.392,0.867l-0.006,0.012l-0.003,0.007l-0.007,0.012v0
		c-0.172,0.325-0.356,0.647-0.542,0.966c-0.187,0.317-0.38,0.631-0.571,0.943l-0.009,0.016l-0.006,0.009l-0.008,0.014v0.001
		c-0.166,0.242-0.332,0.477-0.514,0.703c-0.18,0.225-0.37,0.445-0.581,0.657l-0.025,0.025l-0.013,0.014l-0.025,0.023
		c-0.301,0.262-0.556,0.435-0.837,0.566c-0.271,0.129-0.558,0.215-0.926,0.305v0.001c-0.194,0.047-0.389,0.08-0.582,0.105
		c-0.188,0.022-0.382,0.038-0.573,0.05c-0.308,0.021-0.629,0.035-0.955,0.043c-0.342,0.009-0.654,0.013-0.949,0.013h-11.4
		c-0.083,0.122-0.164,0.242-0.244,0.362c-0.075,0.11-0.192,0.286-0.312,0.465c-0.089,0.168-0.241,0.482-0.338,0.765
		c-0.045,0.132-0.077,0.252-0.083,0.33c0.026,0.013,0.057,0.026,0.083,0.038c0.034,0.015,0.086,0.035,0.144,0.057
		c0.135,0.051,0.307,0.087,0.457,0.117l0.034,0.007c0.173,0.031,0.352,0.056,0.532,0.077h0.002c0.18,0.021,0.362,0.036,0.545,0.05
		c0.388,0.021,0.77,0.036,1.146,0.044c0.386,0.008,0.77,0.01,1.156,0.006c0.553-0.005,1.114-0.018,1.681-0.041
		c0.554-0.022,1.113-0.056,1.679-0.103h0.003c0.349-0.028,0.695-0.064,1.037-0.117c0.344-0.052,0.685-0.118,1.017-0.205
		c0.229-0.06,0.459-0.126,0.685-0.204c0.225-0.075,0.444-0.16,0.662-0.257l0.007-0.003l0.002,0l0.009-0.004
		c0.203-0.085,0.405-0.184,0.605-0.294c0.198-0.109,0.392-0.229,0.572-0.355l0.229-0.159l0.142-0.045h3.002l-0.248,0.382
		l-0.891,1.374l-0.01,0.018c-0.545,0.837-1.088,1.675-1.682,2.575h0.003l-0.005,0.008l-0.004,0.003l-0.003,0.007l-0.139,0.203
		C174.884,62.375,174.624,62.755,174.353,63.108z M176.943,65.548c-0.449,0.002-0.883-0.103-1.23-0.336h-0.002
		c-0.317-0.216-0.557-0.535-0.662-0.973c-0.043-0.181-0.056-0.356-0.047-0.529c0.008-0.155,0.035-0.307,0.072-0.462v-0.004
		l0.016-0.077l0.045-0.138c0.126-0.373,0.379-0.789,0.663-1.182c0.278-0.388,0.583-0.751,0.825-1.033
		c0.173-0.202,0.357-0.409,0.549-0.62c0.194-0.211,0.385-0.412,0.568-0.603l0.068-0.07c0.219-0.225,0.519-0.533,0.772-0.693
		l2.301-1.452l0.36,0.298l-0.934,2.366c0.073,0.013,0.155,0.025,0.241,0.034c0.345,0.04,0.722,0.051,0.874,0.052
		c0.629,0.008,1.27-0.014,1.908-0.037c0.412-0.015,0.819-0.029,1.241-0.035c0.148-0.002,0.294-0.003,0.444-0.005
		c0.291,0,0.636,0.009,1.021,0.018c2.546,0.061,6.974,0.167,7.928-1.91c-0.683-0.33-2.781-0.676-3.797-0.843
		c-0.191-0.031-0.344-0.056-0.462-0.078c-0.9-0.164-2.082-0.383-3.15-0.792c-1.104-0.421-2.092-1.045-2.56-2.019
		c-0.179-0.375-0.265-0.766-0.277-1.16c-0.013-0.424,0.062-0.848,0.2-1.263v0c0.257-0.757,0.757-1.559,1.349-2.311
		c0.725-0.918,1.595-1.768,2.327-2.365c1.184-0.963,2.492-1.731,3.891-2.25c1.34-0.497,2.764-0.768,4.239-0.767l2.671,0.003
		c3.787,0.003,7.573,0.007,11.357,0.007v-0.001h1.673l-0.133,0.338l-0.482,1.217c-0.048,0.12-0.081,0.249-0.114,0.374l-0.009,0.03
		l-0.008,0.03l-0.005,0.017l-0.011,0.029c-0.089,0.266-0.31,0.597-0.571,0.923c-0.354,0.44-0.794,0.883-1.058,1.125
		c-0.309,0.28-0.676,0.569-1.071,0.79c-0.413,0.229-0.864,0.386-1.326,0.386c-0.891,0-2.521-0.003-4.17-0.006
		c-1.127-0.002-2.254-0.004-4.167-0.004c-0.476,0-0.952,0.057-1.405,0.182c-0.42,0.116-0.82,0.292-1.188,0.532
		c-0.212,0.138-0.443,0.324-0.639,0.538c-0.097,0.105-0.187,0.218-0.257,0.333c0.079,0.029,0.171,0.057,0.266,0.083
		c0.339,0.096,0.728,0.169,0.886,0.196c0.668,0.118,1.351,0.203,2.034,0.288c0.386,0.048,0.772,0.096,1.197,0.157
		c0.931,0.133,2.125,0.313,3.221,0.692c1.125,0.388,2.142,0.985,2.667,1.948c0.23,0.419,0.345,0.862,0.367,1.309
		c0.025,0.491-0.059,0.986-0.215,1.465v0.001l-0.004,0.007v0.001c-0.31,0.916-0.875,1.836-1.553,2.684
		c-0.812,1.018-1.79,1.939-2.683,2.628c-1.153,0.896-2.454,1.659-3.836,2.18c-1.261,0.476-2.59,0.753-3.943,0.753H176.943z
		 M185.186,58.163l0.038-0.097c0.039,0.035,0.085,0.064,0.126,0.098C185.29,58.163,185.239,58.163,185.186,58.163z M112.023,55.999
		c-0.268,0.009-0.542,0.023-0.825,0.047c-0.172,0.017-0.35,0.038-0.536,0.066c-0.184,0.028-0.36,0.059-0.529,0.097
		c-0.106,0.027-0.216,0.055-0.332,0.088c-0.105,0.031-0.212,0.067-0.318,0.111h-0.001c-0.084,0.033-0.172,0.073-0.263,0.117
		c-0.088,0.043-0.169,0.085-0.242,0.128c-0.183,0.122-0.358,0.279-0.53,0.432l-0.029,0.027c-0.122,0.123-0.245,0.251-0.367,0.388
		c-0.122,0.134-0.236,0.269-0.341,0.405l-0.006,0.008l-0.004,0.005l-0.007,0.009c-0.122,0.151-0.288,0.364-0.438,0.589
		c-0.102,0.153-0.194,0.311-0.254,0.449l0.007,0.001l0.036,0.007c0.107,0.019,0.209,0.035,0.308,0.047
		c0.096,0.014,0.196,0.023,0.301,0.031c0.203,0.012,0.4,0.021,0.587,0.029c0.181,0.006,0.374,0.009,0.585,0.009h3.626l1.108-1.685
		c0.31-0.473,0.621-0.943,0.931-1.415h-1.637C112.562,55.989,112.279,55.991,112.023,55.999z"/>
	<path fill="#ED1C24" d="M111.097,54.914c-0.538,0.052-0.89,0.115-1.218,0.188c-0.305,0.073-0.562,0.146-0.82,0.25
		c-0.234,0.094-0.469,0.208-0.679,0.334c-0.259,0.167-0.469,0.355-0.75,0.605c-0.258,0.261-0.562,0.584-0.82,0.918
		c-0.492,0.605-0.843,1.17-0.96,1.608c-0.094,0.333-0.141,0.584,0.117,0.876c0.258,0.25,0.493,0.313,0.867,0.396
		c0.187,0.031,0.422,0.073,0.75,0.094c0.352,0.021,0.797,0.042,1.242,0.042h4.239c1.171-1.785,2.342-3.571,3.537-5.376h-3.748
		C112.222,54.851,111.589,54.872,111.097,54.914z M113.559,57.404l-1.108,1.685h-3.626c-0.211,0-0.404-0.003-0.585-0.009
		c-0.188-0.007-0.385-0.017-0.587-0.029c-0.105-0.007-0.206-0.017-0.301-0.031c-0.099-0.012-0.201-0.028-0.308-0.047l-0.036-0.007
		L107,58.965c0.061-0.139,0.153-0.296,0.254-0.449c0.15-0.225,0.315-0.438,0.438-0.589l0.007-0.009l0.004-0.005l0.006-0.008
		c0.105-0.137,0.22-0.271,0.341-0.405c0.122-0.137,0.245-0.265,0.367-0.388l0.029-0.027c0.171-0.153,0.347-0.31,0.53-0.432
		c0.073-0.043,0.154-0.085,0.242-0.128c0.09-0.044,0.179-0.083,0.263-0.117h0.001c0.106-0.044,0.212-0.08,0.318-0.111
		c0.116-0.033,0.226-0.061,0.332-0.088c0.169-0.038,0.345-0.069,0.529-0.097c0.186-0.028,0.363-0.049,0.536-0.066
		c0.283-0.024,0.557-0.038,0.825-0.047c0.256-0.008,0.539-0.01,0.831-0.01h1.637C114.18,56.46,113.869,56.931,113.559,57.404z
		 M101.04,50.996l0.005-0.008l0.001-0.004l0.005-0.008l0.001-0.001l0.012-0.02c0.492-0.789,1.016-1.631,1.285-2.545
		c0.047-0.161,0.079-0.326,0.092-0.493c0.016-0.167,0.015-0.335-0.003-0.5c-0.064-0.61-0.331-1.134-0.717-1.559
		c-0.425-0.467-0.997-0.814-1.601-1.017c-1.43-0.477-3.363-0.477-4.866-0.476h-0.157v-0.001h-0.055v0.001
		c-0.999,0-2.045,0-3.035,0.113c-0.356,0.042-0.705,0.1-1.045,0.19c-0.344,0.091-0.68,0.213-1.009,0.381
		c-0.177,0.089-0.345,0.188-0.51,0.296c-0.157,0.104-0.315,0.218-0.472,0.338c-0.189,0.144-0.405,0.31-0.634,0.487l-0.379,0.292
		c-0.013-0.025-0.026-0.05-0.039-0.075c-0.271-0.5-0.671-0.862-1.134-1.13c-0.45-0.26-0.958-0.427-1.458-0.544
		c-0.69-0.16-1.438-0.248-2.189-0.294c-0.739-0.046-1.489-0.054-2.188-0.054h-0.207c-1.642-0.001-3.679-0.003-5.162,0.784
		c-0.138,0.073-0.271,0.15-0.399,0.233v0.001c-0.043,0.027-0.083,0.054-0.125,0.082c-0.25-0.443-0.677-0.68-1.153-0.807
		c-0.491-0.129-1.023-0.137-1.458-0.137h-6.183v0H65.67l-0.074,0.106l-0.266,0.384c-0.083,0.122-0.168,0.235-0.253,0.348
		l-0.001,0.002v0.001l-0.001-0.001l-0.881,1.18l-0.245,0.327l0.404,0.065l0.919,0.146l-0.046,0.065h0.001l-0.014,0.018l-0.007,0.01
		l-0.013,0.019c-0.63,0.98-1.262,1.96-1.892,2.941c-2.605,4.049-5.209,8.1-7.869,12.152c-0.095,0.143-0.201,0.314-0.291,0.492
		c-0.093,0.181-0.172,0.375-0.215,0.563c-0.05,0.191-0.071,0.386-0.057,0.579c0.013,0.187,0.059,0.373,0.141,0.549
		c0.173,0.379,0.458,0.632,0.796,0.794c0.4,0.193,0.869,0.256,1.301,0.256h7.314l0.075-0.099l0.266-0.356
		c0.064-0.086,0.124-0.166,0.154-0.208c0.049-0.067,0.1-0.137,0.153-0.214l0.803-1.162l0.221-0.322l-0.386-0.061l-0.852-0.136
		l0.043-0.063l0.011-0.017l0.006-0.011l0.012-0.016c0.996-1.563,2.033-3.182,3.109-4.854c1.064-1.651,2.109-3.265,3.134-4.837
		c0.835-1.246,1.371-1.929,2.054-2.287c0.682-0.359,1.555-0.417,3.064-0.417c0.137,0,0.44,0.007,0.724,0.037
		c0.056,0.006,0.111,0.013,0.165,0.02c-0.153,0.275-0.312,0.539-0.469,0.801l-0.106,0.179l-0.001,0.001l-0.006,0.011l-0.003,0.004
		l-0.005,0.011v-0.001c-0.035,0.062-0.063,0.112-0.089,0.153c-0.021,0.035-0.056,0.093-0.092,0.152
		c-1.119,1.739-2.236,3.477-3.355,5.216c-1.117,1.735-2.235,3.471-3.353,5.204c-0.127,0.159-0.264,0.353-0.377,0.554
		c-0.096,0.17-0.176,0.35-0.22,0.521h-0.001c-0.044,0.163-0.065,0.331-0.059,0.5c0.006,0.166,0.036,0.329,0.094,0.486
		c0.193,0.523,0.596,0.831,1.069,1.005c0.443,0.163,0.944,0.207,1.377,0.207h7.107l0.071-0.126l0.254-0.454
		c0.038-0.067,0.089-0.138,0.137-0.207c0.025-0.034,0.049-0.067,0.065-0.09l0.75-1.087l0.208-0.3l-0.357-0.08l-0.805-0.18
		c0.028-0.048,0.053-0.094,0.075-0.131v-0.001l0.02-0.034c1.638-2.53,3.285-5.056,4.932-7.58c0.623-0.955,1.247-1.91,1.869-2.865
		c0.172-0.264,0.356-0.524,0.564-0.759c0.204-0.229,0.429-0.435,0.684-0.597c0.407-0.258,0.906-0.4,1.423-0.477
		c0.529-0.081,1.081-0.093,1.577-0.093c0.171,0,0.585,0.005,0.977,0.035c0.109,0.009,0.215,0.019,0.313,0.032
		c-0.031,0.058-0.063,0.116-0.096,0.173c-0.124,0.214-0.256,0.42-0.354,0.564h0l-0.004,0.006L90.99,51.27l-0.004,0.007l-0.002,0.002
		c-1.58,2.431-3.093,4.779-4.604,7.129c-0.83,1.287-1.658,2.575-2.489,3.86c-0.125,0.162-0.266,0.363-0.385,0.573
		c-0.095,0.17-0.177,0.348-0.225,0.52c-0.041,0.132-0.065,0.27-0.069,0.41c-0.004,0.136,0.011,0.272,0.046,0.408
		c0.123,0.482,0.434,0.798,0.824,1.001c0.486,0.255,1.096,0.326,1.601,0.326h7.173l0.075-0.099l0.266-0.357h0.001
		c0.042-0.055,0.085-0.114,0.153-0.207v-0.001c0.057-0.077,0.108-0.149,0.152-0.213l0.803-1.162l0.222-0.322l-0.387-0.062
		l-0.852-0.136l0.044-0.063v-0.001l0.01-0.014l0.005-0.008l0.01-0.015h0.001l0.029-0.044C95.949,58.835,98.509,54.87,101.04,50.996
		L101.04,50.996z M92.405,62.23c-0.374,0.532-0.491,0.814-0.562,1.022c-0.117,0.418,0.071,0.626,0.726,0.731
		c-0.094,0.135-0.187,0.26-0.281,0.386h-6.605c-0.961,0-1.453-0.282-1.312-0.688c0.023-0.104,0.164-0.397,0.445-0.751
		c2.366-3.663,4.732-7.358,7.121-11.032c0.375-0.552,0.703-1.179,0.796-1.492c0.234-0.772-0.515-1.085-2.577-1.085
		c-2.788,0-3.982,0.564-5.2,2.442c-2.271,3.485-4.568,6.993-6.816,10.468c-0.304,0.532-0.444,0.825-0.492,1.033
		c-0.117,0.386,0.023,0.595,0.633,0.73c-0.094,0.135-0.188,0.261-0.258,0.386h-6.441c-1.031,0-1.522-0.282-1.382-0.771
		c0.023-0.105,0.164-0.387,0.422-0.7c2.248-3.485,4.497-6.982,6.746-10.479c0.07-0.114,0.14-0.229,0.211-0.354
		c0.702-1.18,0.795-1.356,0.89-1.638c0.211-0.731-0.516-1.117-2.179-1.117c-3.443,0-4.192,0.417-6.066,3.214
		c-2.108,3.235-4.192,6.472-6.253,9.707c-0.375,0.532-0.492,0.814-0.562,1.023c-0.117,0.417,0.07,0.626,0.726,0.73
		c-0.094,0.135-0.188,0.261-0.282,0.386h-6.746c-0.843,0-1.218-0.282-1.077-0.771c0.022-0.136,0.164-0.418,0.352-0.7
		c3.302-5.029,6.535-10.082,9.767-15.101c0.374-0.522,0.491-0.804,0.562-1.013c0.117-0.427-0.071-0.647-0.726-0.751
		c0.094-0.126,0.187-0.251,0.281-0.386h6.183c1.406,0,1.805,0.229,1.641,0.783c-0.047,0.177-0.188,0.459-0.352,0.699
		c-0.282,0.438-0.562,0.877-0.844,1.305c0.82-0.605,1.663-1.211,2.506-1.827c1.195-0.909,2.202-1.117,5.552-1.117
		c5.106,0,6.605,0.762,6.066,3.121c0.89-0.679,1.756-1.357,2.646-2.035c1.195-0.92,2.014-1.085,5.434-1.085
		c2.459,0,3.725,0.104,4.662,0.417c1.146,0.387,1.756,1.295,1.498,2.172c-0.188,0.636-0.515,1.231-1.17,2.285
		C97.512,54.319,94.959,58.275,92.405,62.23z M55.209,59.155l0.012,0.001c2.312-3.545,4.601-7.105,6.891-10.667l-0.029-0.004
		c-1.075,1.659-2.152,3.318-3.225,4.979C57.635,55.357,56.42,57.255,55.209,59.155z M55.53,61.091l-0.369-0.041l-1.325-0.147
		c-0.376-0.042-0.727-0.074-1.077-0.104l-0.282-0.025v0.001c-0.379-0.035-0.52-0.046-0.665-0.058
		c-0.697-0.059-1.401-0.117-2.086-0.213c0.954-1.511,1.898-3,2.835-4.467c0.979-1.532,2.004-3.125,3.065-4.768
		c0.906-1.4,1.626-2.511,2.348-3.625c1.698-2.619,3.396-5.239,5.1-7.907c0.135-0.207,0.268-0.414,0.403-0.622
		c0.41-0.633,0.822-1.269,1.241-1.893l0.014-0.021c0.163-0.243,0.33-0.491,0.517-0.705l0.001-0.002l0.008-0.009l0.001,0
		c0.153-0.181,0.3-0.334,0.459-0.463c0.157-0.128,0.331-0.236,0.542-0.33l0.002-0.001l0.01-0.005h0.001
		c0.354-0.163,0.773-0.288,1.199-0.386c0.435-0.1,0.878-0.173,1.275-0.23c0.835-0.119,1.732-0.104,2.611-0.091
		c0.346,0.005,0.69,0.01,1.029,0.008h0.001l0.461-0.004l0.126,0l0.073-0.104l0.263-0.378c0.386-0.554,0.754-1.142,1.122-1.726
		l0.241-0.385l0.862-1.364l0.238-0.377h-2.061v-0.001c-5.523,0-8.887-0.002-12.192-0.004c-4.833-0.003-9.665-0.006-12.191-0.006
		v0.001h-0.669l-0.071,0.127l-0.253,0.459c-0.168,0.302-0.387,0.695-0.631,1.128c-0.08,0.145-0.346,0.62-0.632,1.129l-0.757,1.35
		l-0.21,0.373l0.429-0.006l1.548-0.025c0.217-0.004,0.424-0.008,0.632-0.013c0.615-0.015,1.229-0.03,1.849-0.003
		c0.234,0.009,0.866,0.051,1.38,0.15c0.215,0.042,0.401,0.088,0.507,0.141c-0.006,0.028-0.016,0.061-0.027,0.096
		c-0.045,0.136-0.117,0.273-0.165,0.342l-0.01,0.015l-0.005,0.007l-0.008,0.015h-0.001c-1.234,1.943-2.456,3.846-3.667,5.712
		c-1.221,1.883-2.462,3.775-3.72,5.678c-0.935,1.412-1.88,2.832-2.849,4.269c-0.972,1.442-1.939,2.858-2.9,4.234
		c-0.279,0.399-0.562,0.8-0.852,1.203c-0.278,0.386-0.567,0.78-0.874,1.183c-0.173,0.229-0.344,0.453-0.498,0.644
		c-0.167,0.209-0.34,0.415-0.52,0.613l-0.013,0.015c-0.195,0.215-0.38,0.42-0.63,0.522V60c-1.006,0.414-2.119,0.576-3.209,0.732
		c-0.157,0.022-0.308,0.044-0.412,0.06c-0.325,0.045-0.604,0.088-0.883,0.131c-0.285,0.044-0.568,0.087-0.799,0.12h-0.003
		l-0.014,0.002l-0.001,0.001c-0.088,0.014-0.102,0.015-0.295,0.044c-0.319,0.048-0.638,0.097-0.965,0.161l-0.363,0.071l-0.102,0.02
		l-0.057,0.085l-0.206,0.307c-0.375,0.563-0.783,1.16-1.19,1.757l-0.945,1.388l-0.262,0.385h0.466l1.68,0.003
		c4.05,0.004,8.098,0.007,12.146,0.006c4.049-0.001,8.098-0.006,12.146-0.017l0.47-0.002h0.13l0.073-0.108l0.264-0.388
		c0.247-0.361,0.473-0.719,0.687-1.074c0.217-0.361,0.427-0.729,0.634-1.103l0.646-1.167L55.53,61.091z M52.446,64.119
		c-8.081,0.021-16.302,0.021-24.29,0.01c0.398-0.584,0.796-1.168,1.195-1.764c0.375-0.073,0.75-0.125,1.218-0.198
		c0.444-0.062,1.007-0.157,1.687-0.25c1.265-0.188,2.624-0.344,3.888-0.866c0.515-0.209,1.008-0.47,3.888-4.583
		c2.858-4.091,8.128-12.002,13.164-19.934c0.375-0.543,0.493-1.191,0.305-1.598c-0.516-1.147-4.146-0.918-5.434-0.897
		c0.421-0.751,0.843-1.502,1.265-2.265c8.174,0,16.279,0.011,24.383,0.011c-0.422,0.668-0.914,1.461-1.335,2.066
		c-1.335,0.011-2.624-0.073-3.795,0.094c-1.148,0.167-2.108,0.397-2.788,0.71c-0.679,0.303-1.077,0.71-1.405,1.097
		c-0.328,0.375-0.562,0.741-2.273,3.371c-1.686,2.64-4.871,7.546-7.448,11.533s-4.544,7.077-6.488,10.166
		c-0.094,0.177-0.047,0.365,0.047,0.563c1.335,0.313,2.741,0.396,4.146,0.521c0.351,0.031,0.866,0.073,1.334,0.125
		C53.312,62.752,52.915,63.431,52.446,64.119z M216.598,40.534c-5.348-4.413-13.218-8.402-22.995-11.767
		c-9.809-3.377-21.527-6.109-34.555-7.978c-12.54-1.798-26.278-2.799-40.69-2.809c-14.459-0.011-28.27,0.965-40.882,2.747
		c-13.03,1.841-24.766,4.545-34.601,7.913c-9.763,3.344-17.598,7.333-22.92,11.757c-4.98,4.14-7.727,8.634-7.732,13.293
		c-0.006,4.662,2.728,9.161,7.695,13.304c5.303,4.424,13.121,8.416,22.867,11.757c9.839,3.372,21.592,6.084,34.647,7.929
		c12.62,1.785,26.446,2.764,40.926,2.749c14.443-0.013,28.205-1.018,40.756-2.817c13.049-1.872,24.777-4.608,34.582-7.988
		c9.749-3.36,17.6-7.351,22.933-11.767c4.962-4.11,7.705-8.56,7.701-13.166C224.325,49.083,221.571,44.64,216.598,40.534z
		 M214.214,47.738c-0.023,0.058-0.038,0.131-0.055,0.193l-0.024,0.101l-0.034,0.099c-0.338,0.989-1.375,2.136-2.151,2.839
		c-1.017,0.922-2.248,1.665-3.665,1.665c-0.688,0-1.379-0.001-2.07-0.002c0.891,0.51,1.657,1.196,2.175,2.144
		c0.729,1.332,0.753,2.852,0.285,4.276l-0.004,0.017c-0.805,2.382-2.905,4.682-4.867,6.204c-2.551,1.978-5.675,3.331-8.938,3.331
		h-16.267c-1.239,0.008-2.375-0.487-3.088-1.395c-0.106,0.061-0.217,0.117-0.328,0.17l-0.103,0.049l-0.105,0.039
		c-0.309,0.122-0.619,0.236-0.937,0.334l-0.012,0.003l-0.04,0.013c-0.562,0.161-1.134,0.276-1.711,0.37
		c-0.934,0.15-1.877,0.244-2.82,0.305c-1.419,0.089-2.846,0.121-4.267,0.121c-1.344,0-2.688-0.027-4.029-0.11l-0.028-0.003
		c-0.874-0.06-1.747-0.15-2.608-0.316c-0.616-0.119-1.221-0.275-1.81-0.491c-0.888-0.319-1.702-0.822-2.379-1.479
		c-0.749-0.369-1.427-0.87-1.979-1.498c-0.344-0.386-0.629-0.815-0.862-1.27c-0.576,0.895-1.152,1.791-1.728,2.686l-0.025,0.037
		c-0.464,0.697-0.964,1.367-1.484,2.022l-0.026,0.031l-0.027,0.033c-0.432,0.516-0.898,1-1.403,1.449
		c-0.82,0.729-1.702,1.314-2.7,1.776c-0.524,0.249-1.066,0.445-1.62,0.616c-0.667,0.209-1.35,0.357-2.037,0.49l-0.041,0.008
		c-1.123,0.199-2.258,0.304-3.395,0.376h-0.008c-1.822,0.103-3.649,0.14-5.473,0.15c-1.371,0.009-2.742-0.007-4.114-0.064
		l-0.026-0.002c-0.773-0.042-1.545-0.091-2.311-0.188h-0.009c-0.448-0.062-0.896-0.13-1.335-0.234
		c-0.407-0.085-0.806-0.198-1.184-0.367c-0.28-0.125-0.544-0.255-0.798-0.424l-0.066-0.044l-0.062-0.045
		c-0.226-0.17-0.435-0.345-0.624-0.556c-0.026-0.028-0.045-0.06-0.069-0.089c-0.009-0.004-0.018-0.007-0.027-0.01
		c-0.278-0.125-0.543-0.254-0.797-0.423l-0.067-0.044l-0.062-0.048c-0.227-0.167-0.436-0.342-0.625-0.552
		c-0.425-0.47-0.705-1.039-0.833-1.655c-1.502,0.003-3.004,0.008-4.507,0.008h-0.054l-0.054-0.002
		c-1.049-0.038-1.821-0.096-2.621-0.566c-0.482,0.201-0.976,0.351-1.499,0.462l-0.008,0.001c-0.552,0.113-1.113,0.174-1.676,0.213
		c-0.839,0.054-1.681,0.069-2.521,0.069c-0.806,0-1.612-0.025-2.414-0.094c-0.637-0.054-1.271-0.148-1.891-0.3
		c-0.469-0.106-0.929-0.25-1.375-0.432c-0.461-0.188-0.903-0.421-1.301-0.72c-0.268-0.196-0.502-0.405-0.716-0.622
		c-0.211-0.101-0.414-0.215-0.611-0.341l-0.562,0.816c-0.113,0.163-0.23,0.321-0.349,0.479l-0.906,1.213H87.33
		c-1.409,0-2.817-0.442-3.646-1.502c-0.367-0.136-0.705-0.324-1.01-0.553l-0.258,0.373c-0.037,0.055-0.08,0.109-0.116,0.163
		l-0.86,1.531h-8.212c-1.424,0-2.828-0.42-3.679-1.504c-0.372-0.136-0.723-0.313-1.033-0.547l-0.248,0.358
		c-0.113,0.163-0.229,0.322-0.348,0.48l-0.908,1.213h-8.259c-0.989,0-1.95-0.243-2.702-0.787l-0.356,0.521L54.1,68.312
		c-8.1,0.021-16.202,0.021-24.302,0.01l-5.711-0.009l0.793-1.163l-2.439-0.004l3.217-4.72c0.395-0.58,0.79-1.161,1.18-1.743
		l0.7-1.045l1.235-0.241c0.442-0.087,0.888-0.149,1.333-0.219l0.041-0.005c0.56-0.079,1.119-0.172,1.679-0.25
		c0.98-0.146,2.095-0.261,3.032-0.617c0.034-0.038,0.068-0.077,0.1-0.111c0.324-0.359,0.621-0.747,0.913-1.132
		c0.579-0.764,1.133-1.544,1.682-2.327c1.95-2.793,3.842-5.624,5.722-8.463c1.761-2.661,3.497-5.338,5.223-8.021l-4,0.065
		l0.676-1.205l-2.323,0.037l2.577-4.59c0.421-0.75,0.841-1.498,1.257-2.25l0.863-1.56h1.784c8.127,0,16.255,0.011,24.383,0.011
		h5.486l-0.736,1.167h2.382l-2.928,4.64c-0.462,0.731-0.917,1.469-1.411,2.18l-0.894,1.285l-1.564,0.011
		c-1.109,0.009-2.29-0.093-3.385,0.063c-0.602,0.086-1.405,0.209-1.958,0.464l-0.033,0.016c-0.141,0.062-0.235,0.179-0.333,0.293
		l-0.023,0.027c-0.142,0.162-0.266,0.358-0.386,0.537c-0.551,0.821-1.084,1.655-1.624,2.484c-0.15,0.235-0.303,0.469-0.453,0.704
		h6.593c0.986,0,2.005,0.099,2.871,0.557c1.761-0.718,3.76-0.714,5.633-0.714c1.601,0,3.239,0.035,4.805,0.399
		c0.875,0.203,1.716,0.526,2.434,1.042c0.291-0.204,0.591-0.389,0.907-0.55c0.854-0.436,1.748-0.655,2.696-0.764
		c1.098-0.127,2.201-0.127,3.305-0.127c1.844,0,3.858-0.016,5.624,0.575c0.87,0.293,1.655,0.784,2.274,1.421
		c1.417,0.661,2.523,1.86,2.87,3.398c0.075-0.523,0.253-1.05,0.524-1.579l0.059-0.114l0.066-0.106
		c0.466-0.749,0.957-1.481,1.437-2.22l0.896-1.375h1.64c3.961,0,7.923,0.011,11.883,0.011c1.174-0.012,2.37,0.087,3.513,0.351
		l0.011,0.002c0.446,0.105,0.887,0.245,1.313,0.417c0.428,0.162,0.835,0.367,1.217,0.618c0.35,0.22,0.666,0.483,0.95,0.778
		c0.24,0.116,0.474,0.243,0.697,0.389c0.374,0.236,0.712,0.517,1.013,0.837c0.082,0.086,0.151,0.178,0.225,0.269
		c0.696-0.521,1.416-1.009,2.18-1.429c0.985-0.54,2.018-0.982,3.086-1.328c1.234-0.412,2.508-0.688,3.795-0.872l0.029-0.004
		c1.628-0.216,3.277-0.297,4.92-0.297h9.392c0.583,0,1.163,0.019,1.739,0.118l0.008,0c0.186,0.034,0.371,0.074,0.554,0.126
		c0.801,0.201,1.475,0.672,1.959,1.279c0.913,0.32,1.642,0.979,2.052,1.794c0.664-0.423,1.351-0.82,2.097-1.173l0.024-0.011
		c0.923-0.423,1.882-0.758,2.863-1.018c1.178-0.326,2.384-0.534,3.596-0.671l0.01-0.001c1.467-0.158,2.944-0.224,4.422-0.237
		c1.104-0.01,2.208,0.014,3.308,0.118c0.752,0.07,1.501,0.183,2.239,0.354c0.594,0.134,1.181,0.311,1.739,0.556
		c0.46,0.194,0.892,0.437,1.305,0.714c0.304,0.201,0.569,0.438,0.825,0.689c0.283,0.146,0.558,0.301,0.822,0.478
		c0.41,0.275,0.768,0.601,1.104,0.964l0.057,0.061l0.052,0.064c0.041,0.049,0.073,0.101,0.111,0.149
		c0.272-0.252,0.545-0.491,0.811-0.707c2.658-2.164,5.873-3.443,9.323-3.439c4.674,0.004,9.35,0.01,14.025,0.01h4.452l-0.463,1.167
		h2.109L214.214,47.738z M175.278,61.796l0.003-0.007l0.004-0.003l0.005-0.008h-0.003c0.594-0.9,1.137-1.738,1.682-2.575l0.01-0.018
		l0.891-1.374l0.248-0.382h-3.002l-0.142,0.045l-0.229,0.159c-0.181,0.126-0.374,0.246-0.572,0.355
		c-0.2,0.11-0.402,0.208-0.605,0.294l-0.009,0.004l-0.002,0l-0.007,0.003c-0.218,0.097-0.438,0.182-0.662,0.257
		c-0.226,0.078-0.455,0.144-0.685,0.204c-0.332,0.086-0.673,0.152-1.017,0.205c-0.342,0.052-0.688,0.089-1.037,0.117h-0.003
		c-0.565,0.047-1.125,0.081-1.679,0.103c-0.566,0.023-1.128,0.036-1.681,0.041c-0.387,0.004-0.771,0.002-1.156-0.006
		c-0.377-0.008-0.759-0.022-1.146-0.044c-0.183-0.014-0.365-0.029-0.545-0.05h-0.002c-0.181-0.021-0.359-0.046-0.532-0.077
		l-0.034-0.007c-0.15-0.03-0.322-0.066-0.457-0.117c-0.058-0.022-0.109-0.042-0.144-0.057c-0.026-0.012-0.057-0.024-0.083-0.038
		c0.006-0.077,0.038-0.197,0.083-0.33c0.097-0.283,0.249-0.597,0.338-0.765c0.119-0.18,0.236-0.355,0.312-0.465
		c0.08-0.12,0.161-0.241,0.244-0.362h11.4c0.295,0,0.607-0.004,0.949-0.013c0.326-0.008,0.647-0.022,0.955-0.043
		c0.191-0.012,0.385-0.028,0.573-0.05c0.193-0.025,0.388-0.058,0.582-0.105v-0.001c0.368-0.089,0.655-0.175,0.926-0.305
		c0.281-0.132,0.536-0.304,0.837-0.566l0.025-0.023l0.013-0.014l0.025-0.025c0.211-0.212,0.401-0.432,0.581-0.657
		c0.182-0.226,0.348-0.461,0.514-0.703V54.39l0.008-0.014l0.006-0.009l0.009-0.016c0.191-0.312,0.385-0.626,0.571-0.943
		c0.186-0.319,0.37-0.641,0.542-0.966v0l0.007-0.012l0.003-0.007l0.006-0.012c0.14-0.282,0.271-0.571,0.392-0.867
		c0.122-0.292,0.23-0.586,0.326-0.878v-0.001l0.005-0.011V50.65c0.066-0.211,0.118-0.418,0.162-0.626
		c0.042-0.2,0.075-0.406,0.109-0.625l0.005-0.033l0.003-0.019l0.003-0.035c0.014-0.175,0.022-0.355,0.018-0.543
		c-0.004-0.186-0.021-0.373-0.054-0.557h-0.002c-0.052-0.332-0.138-0.637-0.266-0.925c-0.127-0.293-0.297-0.567-0.516-0.832
		l-0.015-0.019l-0.011-0.01l-0.017-0.018c-0.116-0.127-0.234-0.245-0.356-0.356c-0.124-0.111-0.257-0.217-0.407-0.317
		c-0.162-0.108-0.325-0.209-0.488-0.3c-0.165-0.09-0.334-0.173-0.513-0.248c-0.226-0.101-0.462-0.188-0.701-0.262
		c-0.232-0.072-0.473-0.134-0.714-0.188v-0.001c-0.324-0.075-0.656-0.138-0.996-0.191c-0.334-0.052-0.668-0.093-1.002-0.125
		c-0.518-0.049-1.037-0.078-1.56-0.094c-0.516-0.016-1.035-0.019-1.555-0.015c-0.703,0.006-1.416,0.025-2.118,0.061
		c-0.713,0.037-1.422,0.091-2.117,0.165c-0.557,0.063-1.112,0.143-1.666,0.243c-0.556,0.102-1.103,0.225-1.646,0.374
		c-0.438,0.117-0.872,0.248-1.301,0.399c-0.428,0.15-0.852,0.319-1.267,0.51l-0.012,0.004l-0.001,0.001
		c-0.916,0.434-1.728,0.899-2.49,1.436c-0.762,0.535-1.476,1.142-2.202,1.862c-0.47,0.46-0.925,0.946-1.364,1.449
		c-0.461,0.53-0.902,1.075-1.317,1.625c-0.433,0.558-0.85,1.144-1.242,1.748c-0.38,0.585-0.734,1.187-1.056,1.792
		c-0.253,0.461-0.495,0.938-0.714,1.43c-0.22,0.49-0.411,0.992-0.567,1.505l-0.003,0.01l-0.002,0.007l-0.005,0.009
		c-0.107,0.398-0.188,0.803-0.227,1.212c-0.037,0.413-0.029,0.831,0.038,1.248c0.064,0.384,0.183,0.754,0.348,1.098
		c0.17,0.347,0.386,0.671,0.649,0.962h-0.002c0.257,0.291,0.551,0.542,0.87,0.754c0.334,0.221,0.697,0.401,1.07,0.534h0.002
		c0.249,0.091,0.502,0.168,0.759,0.237c0.254,0.068,0.511,0.125,0.77,0.175c0.395,0.077,0.794,0.135,1.192,0.181
		c0.396,0.046,0.795,0.079,1.191,0.108l0.008,0h0.003c0.643,0.04,1.297,0.067,1.955,0.083c0.679,0.017,1.327,0.023,1.955,0.023
		c0.692,0,1.385-0.009,2.073-0.027c0.701-0.019,1.395-0.047,2.075-0.09c0.438-0.028,0.878-0.064,1.321-0.11
		c0.438-0.046,0.876-0.104,1.317-0.173c0.251-0.042,0.502-0.087,0.746-0.139c0.255-0.053,0.504-0.114,0.744-0.183l0.001-0.001
		l0.01-0.002h0.002l0.007-0.003l0.003,0c0.139-0.043,0.273-0.089,0.407-0.138c0.127-0.046,0.261-0.097,0.396-0.149l0.029-0.013
		l0.02-0.006l0.027-0.014c0.201-0.096,0.374-0.194,0.537-0.309c0.161-0.11,0.312-0.237,0.476-0.389l0.008-0.006l0.005-0.006
		l0.007-0.006l0.001-0.001c0.111-0.108,0.213-0.217,0.313-0.331c0.097-0.112,0.191-0.228,0.284-0.353h0.002
		c0.271-0.353,0.531-0.733,0.787-1.109L175.278,61.796z M174.339,61.155c-0.328,0.48-0.656,0.96-0.89,1.263
		c-0.234,0.313-0.375,0.448-0.493,0.563c-0.233,0.22-0.398,0.345-0.727,0.501c-0.186,0.073-0.421,0.167-0.726,0.261
		c-0.327,0.094-0.725,0.188-1.357,0.292c-0.586,0.094-1.383,0.199-2.529,0.271c-1.147,0.073-2.649,0.115-4.077,0.115
		c-1.452,0-2.833-0.042-3.842-0.105c-1.028-0.073-1.709-0.167-2.247-0.271c-0.539-0.104-0.961-0.219-1.359-0.365
		c-0.585-0.209-1.101-0.542-1.476-0.971c-0.374-0.417-0.633-0.929-0.726-1.492c-0.095-0.574-0.047-1.211,0.163-1.973
		c0.234-0.772,0.611-1.66,1.194-2.725c0.564-1.064,1.336-2.274,2.203-3.391c0.842-1.117,1.757-2.15,2.577-2.954
		c1.567-1.554,2.858-2.358,4.379-3.078c0.749-0.344,1.523-0.616,2.39-0.845c0.867-0.241,1.85-0.439,3.14-0.586
		c1.266-0.135,2.856-0.207,4.122-0.219c1.288-0.01,2.225,0.031,2.997,0.104c0.772,0.074,1.358,0.178,1.851,0.293
		c0.517,0.116,0.913,0.25,1.218,0.387c0.327,0.136,0.586,0.292,0.82,0.449c0.233,0.156,0.397,0.323,0.561,0.501
		c0.329,0.396,0.47,0.782,0.539,1.231c0.049,0.24,0.049,0.511,0.025,0.814c-0.049,0.303-0.095,0.636-0.235,1.085
		c-0.141,0.428-0.352,0.981-0.656,1.597c-0.328,0.615-0.749,1.315-1.077,1.847c-0.351,0.522-0.632,0.866-0.96,1.2
		c-0.492,0.428-0.772,0.501-1.287,0.626c-0.212,0.052-0.493,0.094-0.96,0.125c-0.47,0.031-1.148,0.053-1.829,0.053h-11.993
		c-0.327,0.458-0.633,0.918-0.936,1.377c-0.375,0.678-0.656,1.441-0.563,1.942c0.023,0.271,0.259,0.563,0.516,0.71
		c0.117,0.062,0.26,0.125,0.422,0.188c0.165,0.063,0.377,0.115,0.681,0.178c0.279,0.052,0.655,0.104,1.217,0.146
		c0.561,0.031,1.336,0.062,2.39,0.052c1.077-0.011,2.436-0.063,3.442-0.146c1.031-0.083,1.686-0.208,2.249-0.354
		c0.562-0.146,1.055-0.313,1.522-0.522c0.492-0.209,0.96-0.469,1.381-0.762h0.633C175.463,59.433,174.901,60.3,174.339,61.155z
		 M209.754,44.322c-3.784,0-7.57-0.004-11.357-0.007l-2.671-0.003c-1.476-0.001-2.899,0.27-4.239,0.767
		c-1.398,0.519-2.707,1.287-3.891,2.25c-0.732,0.597-1.603,1.446-2.327,2.365c-0.592,0.751-1.092,1.554-1.349,2.311v0
		c-0.138,0.415-0.213,0.839-0.2,1.263c0.013,0.394,0.099,0.784,0.277,1.16c0.468,0.974,1.456,1.598,2.56,2.019
		c1.068,0.408,2.25,0.627,3.15,0.792c0.118,0.022,0.271,0.047,0.462,0.078c1.016,0.167,3.114,0.514,3.797,0.843
		c-0.954,2.077-5.382,1.97-7.928,1.91c-0.385-0.009-0.729-0.018-1.021-0.018c-0.15,0.001-0.296,0.002-0.444,0.005
		c-0.422,0.006-0.829,0.021-1.241,0.035c-0.639,0.023-1.279,0.045-1.908,0.037c-0.152-0.001-0.529-0.012-0.874-0.052
		c-0.086-0.009-0.168-0.021-0.241-0.034l0.934-2.366l-0.36-0.298l-2.301,1.452c-0.254,0.16-0.554,0.468-0.772,0.693l-0.068,0.07
		c-0.184,0.191-0.374,0.392-0.568,0.603c-0.191,0.211-0.376,0.417-0.549,0.62c-0.242,0.281-0.547,0.645-0.825,1.033
		c-0.284,0.393-0.537,0.81-0.663,1.182l-0.045,0.138l-0.016,0.077v0.004c-0.037,0.155-0.064,0.307-0.072,0.462
		c-0.009,0.172,0.004,0.348,0.047,0.529c0.105,0.438,0.345,0.757,0.662,0.973h0.002c0.348,0.233,0.781,0.338,1.23,0.336h16.274
		c1.354,0,2.683-0.277,3.943-0.753c1.382-0.521,2.683-1.284,3.836-2.18c0.893-0.689,1.87-1.611,2.683-2.628
		c0.678-0.848,1.243-1.768,1.553-2.684v-0.001l0.004-0.007v-0.001c0.156-0.479,0.24-0.975,0.215-1.465
		c-0.022-0.447-0.137-0.89-0.367-1.309c-0.525-0.962-1.542-1.56-2.667-1.948c-1.096-0.379-2.29-0.559-3.221-0.692
		c-0.425-0.061-0.812-0.108-1.197-0.157c-0.684-0.085-1.366-0.17-2.034-0.288c-0.158-0.027-0.547-0.101-0.886-0.196
		c-0.095-0.026-0.187-0.054-0.266-0.083c0.07-0.115,0.16-0.228,0.257-0.333c0.195-0.214,0.427-0.4,0.639-0.538
		c0.367-0.24,0.768-0.416,1.188-0.532c0.453-0.125,0.93-0.182,1.405-0.182c1.913,0,3.04,0.001,4.167,0.004
		c1.649,0.003,3.279,0.006,4.17,0.006c0.462,0,0.913-0.157,1.326-0.386c0.396-0.221,0.763-0.51,1.071-0.79
		c0.264-0.242,0.703-0.685,1.058-1.125c0.262-0.326,0.482-0.657,0.571-0.923l0.011-0.029l0.005-0.017l0.008-0.03l0.009-0.03
		c0.033-0.125,0.066-0.254,0.114-0.374l0.482-1.217l0.133-0.338L209.754,44.322L209.754,44.322z M209.592,45.991
		c-0.118,0.344-1.804,2.453-2.953,2.453c-2.788,0-5.574-0.011-8.337-0.011c-2.672,0-4.333,1.513-4.709,2.661
		c-0.915,2.787,12.343,0.417,10.563,5.844c-0.938,2.777-5.691,7.473-10.938,7.473h-16.279c-1.147,0.011-0.726-0.97-0.726-1.022
		c0.326-0.981,2.693-3.423,2.974-3.6c-0.772,1.961,2.623,1.404,5.834,1.398c2.436-0.004,8.993,0.647,10.119-2.911
		c0.911-2.767-11.76-1.066-10.144-5.908c0.632-1.857,4.639-6.925,10.728-6.92c4.66,0.005,9.369,0.012,14.03,0.012
		C209.685,45.635,209.637,45.813,209.592,45.991z M185.186,58.163c0.054,0,0.104,0,0.164,0.001
		c-0.041-0.034-0.087-0.063-0.126-0.098L185.186,58.163z M157.195,47.417l0.007-0.008l0.008-0.017l0.059-0.098
		c0.09-0.15,0.178-0.3,0.259-0.446l0.013-0.021c0.064-0.113,0.121-0.213,0.17-0.333c0.056-0.107,0.096-0.218,0.12-0.33
		c0.081-0.355,0.011-0.709-0.158-1.015c-0.168-0.297-0.428-0.55-0.736-0.71c-0.133-0.068-0.271-0.122-0.42-0.155
		c-0.064-0.02-0.129-0.036-0.188-0.05h-0.002c-0.073-0.017-0.14-0.03-0.2-0.041c-0.229-0.04-0.471-0.062-0.714-0.075
		c-0.233-0.011-0.471-0.015-0.701-0.015v-0.001h-9.392c-0.766,0-1.549,0.021-2.338,0.065c-0.78,0.044-1.562,0.115-2.332,0.217
		l-0.01,0.002h-0.002c-0.59,0.084-1.173,0.188-1.754,0.319c-0.578,0.131-1.152,0.289-1.72,0.479
		c-0.484,0.156-0.954,0.33-1.411,0.527c-0.459,0.196-0.91,0.417-1.356,0.661c-0.458,0.25-0.902,0.524-1.338,0.819
		c-0.437,0.296-0.854,0.609-1.254,0.941v0.002c-0.503,0.42-0.977,0.863-1.431,1.326c-0.451,0.461-0.88,0.945-1.292,1.446
		c-0.488,0.574-0.95,1.183-1.383,1.807c-0.432,0.621-0.841,1.265-1.228,1.911v0.001l-0.008,0.011v0.002
		c-0.319,0.556-0.616,1.118-0.881,1.688c-0.265,0.58-0.501,1.171-0.695,1.781l-0.006,0.023l-0.004,0.013l-0.006,0.025
		c-0.052,0.204-0.096,0.4-0.134,0.589c-0.038,0.197-0.073,0.402-0.102,0.611l-0.004,0.03l-0.002,0.018l-0.003,0.03
		c-0.013,0.194-0.014,0.386-0.003,0.579c0.01,0.191,0.033,0.383,0.066,0.577c0.034,0.185,0.078,0.362,0.132,0.533
		c0.059,0.173,0.13,0.343,0.219,0.513c0.086,0.16,0.185,0.313,0.291,0.456c0.085,0.112,0.176,0.221,0.273,0.324h-0.849v0.001h-0.844
		V62.43h-0.63l-0.072,0.117l-0.261,0.419c-0.37,0.593-0.763,1.211-1.157,1.83c-0.244,0.385-0.49,0.773-0.82,1.297l-0.013,0.021
		l-0.001,0c-0.358,0.521-0.713,1.04-0.62,1.76c0.022,0.167,0.069,0.328,0.138,0.476c0.071,0.15,0.164,0.291,0.277,0.414
		c0.056,0.062,0.115,0.117,0.173,0.167h0.001c0.062,0.051,0.119,0.095,0.176,0.137v0.002l0.019,0.013l0.011,0.009l0.019,0.012
		c0.085,0.057,0.172,0.104,0.262,0.15c0.09,0.044,0.174,0.082,0.257,0.119c0.131,0.058,0.271,0.106,0.414,0.148
		c0.139,0.04,0.28,0.073,0.415,0.103c0.197,0.046,0.391,0.083,0.582,0.116c0.191,0.031,0.389,0.061,0.589,0.086
		c0.372,0.048,0.735,0.082,1.09,0.108c0.347,0.027,0.713,0.048,1.083,0.067l0.009,0.001h0.001c0.664,0.028,1.334,0.047,2.01,0.057
		c0.668,0.009,1.335,0.011,2.006,0.006c0.893-0.006,1.791-0.016,2.686-0.039c0.905-0.024,1.804-0.059,2.688-0.109h0.002
		c0.528-0.034,1.058-0.073,1.59-0.129c0.534-0.057,1.065-0.127,1.586-0.219l0.003-0.002l0.013-0.002h0.002
		c0.303-0.058,0.609-0.121,0.916-0.191c0.31-0.072,0.616-0.153,0.916-0.247c0.229-0.071,0.461-0.148,0.697-0.235
		c0.236-0.088,0.464-0.185,0.685-0.288c0.422-0.194,0.808-0.407,1.178-0.651c0.371-0.244,0.722-0.516,1.068-0.825
		c0.214-0.192,0.426-0.395,0.631-0.606c0.195-0.205,0.39-0.42,0.582-0.647h0.002l0.006-0.01l0.004-0.006l0.009-0.009
		c0.239-0.302,0.478-0.612,0.714-0.931c0.236-0.318,0.461-0.64,0.679-0.963v-0.002l0.008-0.012v-0.001
		c1.772-2.755,3.546-5.508,5.32-8.259c1.826-2.83,3.608-5.586,5.334-8.249L157.195,47.417z M156.678,46.011
		c-0.022,0.073-0.022,0.073-0.141,0.283c-0.068,0.125-0.187,0.323-0.303,0.521c-3.561,5.489-7.122,11.01-10.659,16.511
		c-0.445,0.668-0.935,1.315-1.334,1.816c-0.422,0.501-0.774,0.845-1.103,1.137c-0.679,0.607-1.265,0.973-1.966,1.295
		c-0.376,0.178-0.774,0.324-1.241,0.47c-0.47,0.147-1.008,0.272-1.71,0.407c-0.704,0.125-1.569,0.24-3.045,0.334
		c-1.476,0.083-3.607,0.135-5.318,0.146c-1.687,0.01-2.998-0.021-3.958-0.063c-0.959-0.052-1.592-0.104-2.084-0.167
		c-0.468-0.062-0.82-0.125-1.078-0.188c-0.258-0.051-0.469-0.114-0.609-0.177c-0.142-0.063-0.258-0.114-0.352-0.177
		c-0.071-0.053-0.141-0.104-0.187-0.157c-0.352-0.386,0.07-0.908,0.328-1.283c0.655-1.045,1.335-2.099,1.991-3.153h0.844
		c0,0.115,0.045,0.229,0.093,0.333c0.21,0.428,0.467,0.522,0.866,0.679c0.165,0.062,0.399,0.115,0.703,0.177
		c0.328,0.053,0.727,0.105,1.428,0.147c0.704,0.041,1.687,0.073,2.766,0.062c1.052,0,2.225-0.031,3.068-0.094
		c0.866-0.052,1.427-0.125,1.872-0.208c0.421-0.073,0.75-0.157,1.054-0.251c0.398-0.125,0.798-0.282,1.079-0.48
		c0.303-0.198,0.467-0.354,0.749-0.72c0.163-0.219,0.374-0.522,0.585-0.835c0.655-1.022,1.312-2.056,1.991-3.089
		c-0.913,0.772-1.826,1.544-2.717,2.317c-0.187,0.177-0.423,0.344-0.656,0.479c-0.233,0.146-0.468,0.261-0.727,0.366
		c-0.279,0.104-0.561,0.198-0.959,0.282c-0.375,0.083-0.844,0.167-1.545,0.219c-0.681,0.063-1.641,0.094-2.484,0.094
		c-0.866,0-1.616-0.042-2.225-0.115c-0.609-0.073-1.102-0.188-1.524-0.303c-0.396-0.125-0.726-0.261-1.006-0.417
		c-0.282-0.157-0.493-0.324-0.681-0.501c-0.185-0.188-0.327-0.375-0.444-0.595c-0.117-0.219-0.188-0.448-0.234-0.71
		c-0.048-0.261-0.07-0.542-0.048-0.876c0.048-0.334,0.119-0.709,0.213-1.075c0.328-1.034,0.795-2.067,1.474-3.247
		c0.703-1.18,1.594-2.494,2.507-3.569c0.891-1.085,1.757-1.941,2.578-2.63c0.817-0.678,1.616-1.2,2.413-1.638
		c0.818-0.449,1.638-0.804,2.575-1.106c0.938-0.314,1.969-0.564,3.279-0.752c1.336-0.177,2.951-0.271,4.521-0.271h9.392
		c0.47,0,0.914,0.021,1.219,0.074c0.117,0.021,0.211,0.042,0.306,0.073C156.537,45.437,156.841,45.76,156.678,46.011z
		 M128.075,63.777l-0.163-0.009c-0.226-0.012-0.445-0.029-0.655-0.049c-0.213-0.021-0.426-0.047-0.635-0.079v-0.001l-0.07-0.015
		h-0.002c-0.146-0.029-0.316-0.062-0.43-0.106v0.001c-0.049-0.019-0.071-0.027-0.094-0.034c-0.054-0.019-0.108-0.038-0.138-0.06
		v-0.726c0.082,0.069,0.165,0.135,0.249,0.197c0.15,0.111,0.309,0.213,0.476,0.306c0.194,0.108,0.395,0.203,0.598,0.287
		c0.207,0.084,0.413,0.158,0.62,0.222l0.017,0.005l0.008,0.002l0.017,0.004v0.001C127.942,63.743,128.009,63.76,128.075,63.777z
		 M142.201,49.111c-0.561,0.052-1.006,0.136-1.381,0.23c-0.374,0.104-0.701,0.208-1.007,0.344c-0.538,0.25-1.076,0.532-1.779,1.137
		c-0.329,0.282-0.704,0.626-1.032,0.992c-1.194,1.335-2.224,2.869-2.786,3.872c-0.258,0.501-0.421,0.845-0.515,1.179
		c-0.14,0.563-0.188,1.055,0.467,1.577c0.117,0.094,0.282,0.178,0.493,0.251c0.188,0.073,0.421,0.135,0.727,0.177
		c0.282,0.042,0.632,0.073,1.147,0.073c0.492,0,1.171-0.021,1.71-0.063c0.538-0.031,0.938-0.083,1.288-0.146
		c0.328-0.053,0.609-0.115,0.844-0.178c0.233-0.062,0.421-0.135,0.608-0.198c0.163-0.073,0.305-0.146,0.445-0.219
		c0.444-0.271,0.703-0.533,0.891-0.814c1.778-2.776,3.584-5.531,5.388-8.296h-3.585C143.444,49.028,142.765,49.06,142.201,49.111z
		 M143.606,53.239c-0.768,1.181-1.52,2.344-2.24,3.466h0.002c-0.062,0.089-0.135,0.169-0.219,0.242
		c-0.085,0.075-0.18,0.14-0.277,0.201c-0.064,0.035-0.127,0.066-0.156,0.081c-0.049,0.024-0.096,0.048-0.15,0.074l-0.106,0.037
		h-0.002c-0.123,0.042-0.247,0.085-0.375,0.121c-0.123,0.033-0.243,0.061-0.362,0.085c-0.123,0.026-0.246,0.049-0.364,0.068
		l-0.01,0.001l-0.006,0l-0.007,0.001v-0.001c-0.193,0.035-0.384,0.062-0.572,0.083c-0.194,0.022-0.389,0.038-0.581,0.049h-0.015
		l-0.009,0.001c-0.269,0.021-0.532,0.035-0.786,0.045c-0.281,0.01-0.562,0.015-0.836,0.015v-0.001c-0.173,0-0.339-0.003-0.496-0.011
		c-0.161-0.01-0.324-0.025-0.484-0.05h-0.003l-0.01,0h-0.003c-0.078-0.011-0.16-0.025-0.241-0.044h-0.003
		c-0.077-0.018-0.152-0.04-0.223-0.067l-0.015-0.006l-0.01-0.004l-0.016-0.005v0.001c-0.028-0.009-0.074-0.026-0.119-0.046
		c-0.018-0.009-0.031-0.015-0.033-0.018l-0.002-0.001c-0.148-0.119-0.134-0.178-0.088-0.366l0.006-0.025
		c0.083-0.285,0.247-0.601,0.39-0.879l0.027-0.054c0.353-0.625,0.762-1.258,1.198-1.866c0.458-0.633,0.946-1.242,1.436-1.792
		l0.002,0.001c0.142-0.16,0.292-0.311,0.445-0.457c0.156-0.148,0.316-0.292,0.479-0.431v-0.001c0.242-0.209,0.474-0.382,0.72-0.537
		c0.244-0.154,0.5-0.292,0.791-0.428c0.129-0.057,0.264-0.107,0.401-0.152c0.147-0.048,0.285-0.089,0.422-0.127
		c0.197-0.049,0.396-0.089,0.595-0.121c0.202-0.032,0.402-0.059,0.603-0.076c0.3-0.028,0.602-0.048,0.906-0.061
		c0.292-0.012,0.597-0.017,0.911-0.017h1.484C144.94,51.189,144.271,52.213,143.606,53.239z M121.051,63.083l-0.349-0.085
		l-0.77-0.187l0.031-0.044h0.001l0.051-0.074v0l0.009-0.014l0.006-0.008l0.008-0.013c1.252-1.948,2.504-3.897,3.755-5.845
		c1.278-1.99,2.555-3.98,3.834-5.97l0.001-0.003l0.006-0.013l0.003-0.001c0.096-0.155,0.188-0.306,0.273-0.449
		c0.097-0.161,0.186-0.314,0.267-0.458c0.061-0.107,0.121-0.219,0.182-0.337c0.058-0.113,0.114-0.23,0.168-0.35v-0.002l0.005-0.009
		c0.083-0.19,0.147-0.37,0.196-0.55v-0.001c0.05-0.183,0.083-0.371,0.105-0.58v-0.016l0.001-0.009l0.002-0.015
		c0.022-0.389-0.035-0.752-0.164-1.09c-0.132-0.347-0.338-0.665-0.612-0.954c-0.095-0.104-0.2-0.202-0.313-0.294
		c-0.11-0.091-0.227-0.176-0.348-0.251c-0.141-0.091-0.28-0.173-0.426-0.248c-0.144-0.072-0.294-0.138-0.451-0.196
		c-0.169-0.069-0.348-0.132-0.529-0.189c-0.185-0.06-0.365-0.11-0.539-0.152h-0.002c-0.469-0.107-0.964-0.184-1.465-0.232
		c-0.54-0.052-1.085-0.073-1.609-0.068v-0.001c-2.693,0-4.333-0.001-5.946-0.003c-1.983-0.002-3.965-0.005-5.948-0.005h-0.616
		l-0.073,0.112l-0.263,0.405c-0.048,0.073-0.228,0.347-0.404,0.617c-0.339,0.518-0.679,1.035-1.014,1.573l-0.019,0.031l-0.01,0.019
		l-0.018,0.033c-0.179,0.349-0.319,0.687-0.352,1.038c-0.036,0.369,0.044,0.737,0.315,1.123l0.042,0.061l0.026,0.031l0.051,0.053
		c0.168,0.171,0.326,0.281,0.497,0.364c0.161,0.078,0.33,0.131,0.529,0.19v0.001l0.02,0.005l0.011,0.003l0.02,0.005
		c0.202,0.049,0.424,0.079,0.646,0.096c0.222,0.017,0.44,0.021,0.634,0.021h6.863v-0.001h0.167c0.229-0.001,0.462-0.001,0.695,0.01
		c-0.056,0.078-0.11,0.151-0.157,0.213c-0.036,0.037-0.089,0.081-0.143,0.121c-0.037,0.027-0.07,0.049-0.091,0.058
		c-0.043,0.013-0.084,0.024-0.122,0.031l-0.05,0.007l-0.028,0.005l-0.049,0.014c-0.069,0.019-0.175,0.028-0.266,0.036l-0.012,0.001
		v0.001c-0.13,0.006-0.257,0.01-0.378,0.014c-0.103,0.002-0.231,0.004-0.385,0.004h-5.363c-0.5,0-1.013,0.01-1.537,0.035
		c-0.517,0.025-1.03,0.063-1.537,0.118h-0.002l-0.013,0.001H108.1c-0.363,0.045-0.731,0.1-1.106,0.169
		c-0.369,0.068-0.735,0.15-1.097,0.25l-0.002,0.001l-0.015,0.004h-0.001c-0.988,0.294-1.819,0.638-2.594,1.088
		c-0.775,0.451-1.49,1.007-2.246,1.725l-0.001,0.001l-0.007,0.006l-0.003,0.003l-0.006,0.007c-0.299,0.297-0.591,0.608-0.875,0.93
		c-0.298,0.337-0.584,0.684-0.859,1.034l-0.001,0.001l-0.005,0.007l-0.002,0.003l-0.006,0.007c-0.262,0.351-0.52,0.711-0.762,1.074
		c-0.243,0.368-0.476,0.746-0.686,1.132c-0.17,0.314-0.335,0.636-0.483,0.97c-0.148,0.333-0.279,0.675-0.382,1.029l-0.006,0.021
		l-0.002,0.011l-0.005,0.021l-0.018,0.073c-0.071,0.291-0.143,0.59-0.172,0.896c-0.062,0.653-0.01,1.21,0.197,1.711
		c0.208,0.503,0.567,0.938,1.121,1.343v0.001c0.135,0.102,0.28,0.193,0.432,0.274c0.148,0.081,0.302,0.15,0.453,0.212
		c0.179,0.073,0.361,0.138,0.546,0.196c0.18,0.056,0.364,0.105,0.554,0.148c0.271,0.066,0.541,0.12,0.806,0.16h0.001
		c0.271,0.042,0.542,0.073,0.813,0.096c0.364,0.032,0.74,0.053,1.126,0.068c0.39,0.013,0.764,0.02,1.125,0.02
		c0.374,0,0.767-0.003,1.195-0.014c0.407-0.009,0.809-0.026,1.198-0.051h0.001c0.24-0.017,0.477-0.036,0.71-0.064
		c0.232-0.027,0.468-0.065,0.709-0.114h0.002c0.296-0.063,0.566-0.136,0.832-0.229c0.266-0.093,0.523-0.205,0.792-0.343l0.029-0.016
		l0.016-0.008l0.028-0.016c0.115-0.071,0.231-0.144,0.348-0.224c0.038-0.025,0.074-0.05,0.112-0.076
		c0.019,0.039,0.041,0.078,0.065,0.116l0.07,0.115l0.049,0.057l0.103,0.089c0.645,0.559,1.193,0.574,1.909,0.593
		c0.069,0.001,0.139,0.004,0.224,0.007l0.016,0h0.025c0.7,0,1.981-0.001,3.279-0.006c0.886-0.001,1.773-0.004,3.279-0.004h0.666
		l0.071-0.126l0.254-0.454c0.035-0.063,0.086-0.135,0.136-0.205v0c0.025-0.035,0.049-0.068,0.065-0.091l0.734-1.064L121.051,63.083z
		 M119.084,62.043c-0.211,0.302-0.397,0.584-0.469,0.771c-0.093,0.23-0.164,0.376-0.117,0.595c0.117,0.261,0.421,0.323,0.68,0.386
		c-0.094,0.135-0.187,0.261-0.258,0.386c-2.178,0-4.38,0.01-6.558,0.01c-0.585-0.021-1.007,0.042-1.429-0.324
		c-0.188-0.302,0.188-0.699,0.397-0.97c0.469-0.72,0.938-1.43,1.406-2.15c-1.101,0.846-2.225,1.702-3.303,2.536
		c-0.187,0.146-0.397,0.282-0.585,0.397c-0.444,0.229-0.796,0.354-1.334,0.47c-0.305,0.062-0.656,0.115-1.265,0.156
		c-0.632,0.042-1.5,0.062-2.319,0.062c-0.82,0-1.546-0.031-2.155-0.083c-0.609-0.052-1.078-0.135-1.453-0.229
		c-0.375-0.084-0.679-0.188-0.937-0.292c-0.257-0.105-0.468-0.219-0.632-0.345c-0.89-0.647-0.937-1.294-0.867-2.035
		c0.024-0.24,0.094-0.522,0.163-0.814c0.165-0.564,0.422-1.127,0.774-1.774c0.352-0.647,0.843-1.378,1.358-2.067
		c0.539-0.688,1.124-1.346,1.64-1.857c1.593-1.513,2.833-2.087,4.38-2.547c0.562-0.156,1.195-0.281,2.038-0.386
		c0.867-0.094,1.92-0.146,2.952-0.146h5.363c0.305,0,0.633-0.011,0.843-0.021c0.234-0.021,0.375-0.042,0.493-0.073
		c0.14-0.021,0.234-0.052,0.303-0.073c0.258-0.083,0.563-0.313,0.75-0.521c0.375-0.48,0.726-1.075,0.796-1.315
		c0.047-0.115,0.047-0.198,0.023-0.292c-0.094-0.313-0.375-0.344-0.703-0.407c-0.141-0.021-0.328-0.042-0.609-0.062
		c-0.281-0.021-0.679-0.021-1.077-0.021h-6.863c-0.399,0-0.796-0.031-1.007-0.083c-0.212-0.062-0.376-0.094-0.54-0.261
		c-0.234-0.334-0.07-0.626,0.118-0.992c0.468-0.751,0.936-1.451,1.405-2.17c3.982,0,7.964,0.009,11.898,0.009
		c1.008-0.009,2.039,0.094,2.811,0.272c0.353,0.083,0.655,0.188,0.915,0.292c0.282,0.104,0.49,0.22,0.678,0.344
		c0.188,0.115,0.327,0.24,0.446,0.366c0.375,0.397,0.492,0.793,0.468,1.2c-0.023,0.25-0.07,0.46-0.21,0.783
		c-0.071,0.157-0.165,0.345-0.304,0.595c-0.141,0.251-0.329,0.564-0.516,0.867C124.143,54.163,121.613,58.108,119.084,62.043z
		 M175.44,51.313c0.21-0.522,0.373-0.971,0.14-1.461c-0.212-0.417-0.468-0.522-0.795-0.668c-0.143-0.063-0.33-0.125-0.54-0.178
		c-0.234-0.052-0.492-0.094-0.819-0.125c-0.327-0.031-0.703-0.052-1.196-0.042c-0.489,0-1.077,0.032-1.569,0.083
		c-0.514,0.052-0.889,0.136-1.217,0.219c-0.351,0.094-0.632,0.199-0.914,0.323c-0.49,0.22-0.96,0.491-1.545,0.992
		c-0.258,0.229-0.562,0.5-0.868,0.888c-0.327,0.386-0.701,0.865-1.028,1.367h9.555C174.996,52.179,175.275,51.678,175.44,51.313z
		 M174.416,50.819L174.416,50.819l-0.02,0.042c-0.064,0.142-0.134,0.281-0.209,0.416c-0.05,0.094-0.108,0.194-0.171,0.298h-6.571
		c0.09-0.085,0.187-0.173,0.289-0.263h-0.002c0.2-0.17,0.396-0.32,0.601-0.452c0.205-0.134,0.42-0.25,0.66-0.357
		c0.116-0.052,0.238-0.101,0.362-0.145c0.124-0.043,0.246-0.082,0.374-0.116c0.182-0.046,0.354-0.084,0.521-0.115
		c0.172-0.032,0.346-0.057,0.525-0.074h0.002c0.242-0.026,0.487-0.045,0.729-0.058c0.236-0.013,0.479-0.019,0.724-0.019h0.011
		l0.004-0.001h0.011c0.178-0.004,0.355-0.003,0.532,0.002c0.177,0.005,0.353,0.018,0.531,0.034c0.105,0.01,0.219,0.024,0.339,0.042
		c0.115,0.017,0.224,0.037,0.326,0.059c0.052,0.013,0.113,0.03,0.177,0.05c0.06,0.018,0.115,0.038,0.161,0.059
		s0.071,0.03,0.093,0.039c0.064,0.026,0.115,0.048,0.144,0.087C174.578,50.432,174.477,50.673,174.416,50.819z"/>
	<path fill="#FFFFFF" d="M184.996,52.367c-1.616,4.842,11.055,3.142,10.144,5.908c-1.126,3.559-7.684,2.907-10.119,2.911
		c-3.211,0.006-6.606,0.563-5.834-1.398c-0.28,0.177-2.647,2.619-2.974,3.6c0,0.052-0.422,1.034,0.726,1.022
		c5.388,0,10.846,0,16.279,0c5.247,0,10.001-4.696,10.938-7.473c1.779-5.427-11.479-3.058-10.563-5.844
		c0.376-1.148,2.037-2.661,4.709-2.661c2.763,0,5.549,0.011,8.337,0.011c1.149,0,2.835-2.108,2.953-2.453
		c0.045-0.178,0.093-0.356,0.162-0.532c-4.661,0-9.37-0.006-14.03-0.012C189.635,45.442,185.628,50.51,184.996,52.367z"/>
	<path fill="#FFFFFF" d="M48.23,61.385c-0.094-0.199-0.141-0.387-0.047-0.563c1.944-3.089,3.912-6.18,6.488-10.166
		s5.762-8.893,7.448-11.533c1.711-2.63,1.945-2.995,2.273-3.371c0.328-0.387,0.726-0.794,1.405-1.097
		c0.679-0.313,1.64-0.543,2.788-0.71c1.171-0.167,2.46-0.083,3.795-0.094c0.421-0.604,0.913-1.398,1.335-2.066
		c-8.104,0-16.209-0.011-24.383-0.011c-0.421,0.762-0.843,1.513-1.265,2.265c1.288-0.021,4.918-0.25,5.434,0.897
		c0.188,0.407,0.07,1.055-0.305,1.598C48.16,44.466,42.89,52.378,40.032,56.469c-2.88,4.113-3.373,4.374-3.888,4.583
		c-1.265,0.522-2.624,0.678-3.888,0.866c-0.679,0.094-1.242,0.188-1.687,0.25c-0.468,0.073-0.843,0.125-1.218,0.198
		c-0.398,0.595-0.796,1.18-1.195,1.764c7.987,0.011,16.209,0.011,24.29-0.01c0.469-0.688,0.866-1.367,1.265-2.087
		c-0.469-0.052-0.984-0.094-1.334-0.125C50.971,61.781,49.565,61.698,48.23,61.385z"/>
	<path fill="#FFFFFF" d="M99.761,45.917c-0.938-0.313-2.203-0.417-4.662-0.417c-3.42,0-4.239,0.166-5.434,1.085
		c-0.89,0.678-1.756,1.356-2.646,2.035c0.539-2.359-0.96-3.121-6.066-3.121c-3.35,0-4.357,0.208-5.552,1.117
		c-0.843,0.615-1.686,1.221-2.506,1.827c0.281-0.428,0.562-0.867,0.844-1.305c0.164-0.24,0.305-0.521,0.352-0.699
		c0.164-0.554-0.235-0.783-1.641-0.783c-2.061,0-4.122,0-6.183,0c-0.094,0.134-0.187,0.26-0.281,0.386
		c0.655,0.104,0.843,0.324,0.726,0.751c-0.071,0.208-0.188,0.491-0.562,1.013c-3.232,5.02-6.465,10.072-9.767,15.101
		c-0.188,0.282-0.329,0.564-0.352,0.7c-0.141,0.49,0.233,0.771,1.077,0.771c2.271,0,4.521,0,6.746,0
		c0.094-0.125,0.188-0.25,0.282-0.386c-0.656-0.104-0.843-0.313-0.726-0.73c0.07-0.208,0.187-0.491,0.562-1.023
		c2.061-3.235,4.145-6.471,6.253-9.707c1.874-2.797,2.624-3.214,6.066-3.214c1.663,0,2.39,0.386,2.179,1.117
		c-0.094,0.282-0.188,0.458-0.89,1.638c-0.071,0.125-0.142,0.24-0.211,0.354c-2.249,3.497-4.498,6.993-6.746,10.479
		c-0.258,0.313-0.398,0.595-0.422,0.7c-0.141,0.49,0.351,0.771,1.382,0.771c2.155,0,4.31,0,6.441,0
		c0.07-0.125,0.164-0.25,0.258-0.386c-0.61-0.136-0.75-0.345-0.633-0.73c0.047-0.208,0.188-0.501,0.492-1.033
		c2.249-3.475,4.545-6.983,6.816-10.468c1.218-1.878,2.412-2.442,5.2-2.442c2.062,0,2.811,0.313,2.577,1.085
		c-0.093,0.313-0.422,0.94-0.796,1.492c-2.389,3.674-4.754,7.369-7.121,11.032c-0.281,0.354-0.421,0.647-0.445,0.751
		c-0.141,0.407,0.351,0.688,1.312,0.688c2.201,0,4.403,0,6.605,0c0.094-0.125,0.187-0.25,0.281-0.386
		c-0.655-0.104-0.843-0.313-0.726-0.731c0.071-0.208,0.188-0.49,0.562-1.022c2.554-3.955,5.106-7.911,7.683-11.856
		c0.656-1.054,0.983-1.649,1.17-2.285C101.518,47.212,100.908,46.304,99.761,45.917z"/>
	<path fill="#FFFFFF" d="M126.79,46.418c-0.188-0.125-0.396-0.24-0.678-0.344c-0.259-0.104-0.562-0.208-0.915-0.292
		c-0.772-0.178-1.803-0.282-2.811-0.272c-3.935,0-7.916-0.009-11.898-0.009c-0.469,0.72-0.937,1.419-1.405,2.17
		c-0.188,0.366-0.352,0.658-0.118,0.992c0.164,0.167,0.327,0.198,0.54,0.261c0.211,0.052,0.608,0.083,1.007,0.083
		c2.272,0,4.567,0,6.863,0c0.398,0,0.796,0,1.077,0.021c0.282,0.02,0.468,0.042,0.609,0.062c0.328,0.063,0.608,0.094,0.703,0.407
		c0.023,0.094,0.023,0.177-0.023,0.292c-0.071,0.24-0.421,0.835-0.796,1.315c-0.188,0.208-0.492,0.438-0.75,0.521
		c-0.069,0.021-0.164,0.052-0.303,0.073c-0.118,0.032-0.258,0.052-0.493,0.073c-0.21,0.01-0.539,0.021-0.843,0.021
		c-1.803,0-3.606,0-5.363,0c-1.032,0-2.085,0.052-2.952,0.146c-0.843,0.104-1.477,0.229-2.038,0.386
		c-1.546,0.46-2.787,1.034-4.38,2.547c-0.516,0.511-1.101,1.169-1.64,1.857c-0.515,0.689-1.006,1.42-1.358,2.067
		c-0.352,0.647-0.609,1.21-0.774,1.774c-0.069,0.292-0.139,0.574-0.163,0.814c-0.07,0.74-0.023,1.388,0.867,2.035
		c0.164,0.125,0.375,0.24,0.632,0.345c0.258,0.104,0.562,0.208,0.937,0.292c0.375,0.094,0.843,0.178,1.453,0.229
		c0.608,0.052,1.334,0.083,2.155,0.083c0.819,0,1.687-0.021,2.319-0.062c0.609-0.042,0.96-0.094,1.265-0.156
		c0.539-0.115,0.89-0.24,1.334-0.47c0.188-0.115,0.399-0.25,0.585-0.397c1.078-0.834,2.202-1.69,3.303-2.536
		c-0.468,0.72-0.937,1.43-1.406,2.15c-0.21,0.271-0.585,0.668-0.397,0.97c0.422,0.366,0.844,0.303,1.429,0.324
		c2.177,0,4.38-0.01,6.558-0.01c0.071-0.125,0.164-0.251,0.258-0.386c-0.258-0.063-0.563-0.125-0.68-0.386
		c-0.047-0.219,0.024-0.365,0.117-0.595c0.071-0.188,0.258-0.469,0.469-0.771c2.529-3.935,5.059-7.88,7.589-11.815
		c0.188-0.303,0.375-0.616,0.516-0.867c0.139-0.25,0.233-0.438,0.304-0.595c0.14-0.323,0.188-0.532,0.21-0.783
		c0.024-0.407-0.093-0.803-0.468-1.2C127.117,46.659,126.978,46.534,126.79,46.418z M113.064,60.227c-1.406,0-2.834,0-4.239,0
		c-0.445,0-0.89-0.021-1.242-0.042c-0.328-0.021-0.562-0.062-0.75-0.094c-0.375-0.083-0.609-0.146-0.867-0.396
		c-0.257-0.292-0.21-0.543-0.117-0.876c0.117-0.438,0.468-1.003,0.96-1.608c0.258-0.334,0.562-0.657,0.82-0.918
		c0.281-0.25,0.491-0.438,0.75-0.605c0.21-0.125,0.445-0.24,0.679-0.334c0.258-0.104,0.516-0.177,0.82-0.25
		c0.328-0.074,0.68-0.136,1.218-0.188c0.492-0.042,1.125-0.062,1.756-0.062c1.242,0,2.483,0,3.748,0
		C115.406,56.656,114.235,58.442,113.064,60.227z"/>
	<path fill="#FFFFFF" d="M132.53,49.007c-0.82,0.689-1.687,1.544-2.578,2.63c-0.913,1.075-1.804,2.39-2.507,3.569
		c-0.679,1.179-1.146,2.213-1.474,3.247c-0.094,0.365-0.165,0.741-0.213,1.075c-0.022,0.334,0,0.616,0.048,0.876
		c0.046,0.262,0.117,0.491,0.234,0.71c0.117,0.219,0.259,0.407,0.444,0.595c0.188,0.177,0.399,0.344,0.681,0.501
		c0.28,0.156,0.609,0.292,1.006,0.417c0.422,0.115,0.915,0.23,1.524,0.303c0.609,0.073,1.359,0.115,2.225,0.115
		c0.843,0,1.803-0.031,2.484-0.094c0.701-0.052,1.17-0.136,1.545-0.219c0.398-0.083,0.68-0.178,0.959-0.282
		c0.259-0.104,0.493-0.219,0.727-0.366c0.233-0.135,0.47-0.303,0.656-0.479c0.891-0.773,1.804-1.545,2.717-2.317
		c-0.679,1.033-1.336,2.066-1.991,3.089c-0.211,0.313-0.422,0.616-0.585,0.835c-0.282,0.365-0.446,0.521-0.749,0.72
		c-0.281,0.198-0.681,0.355-1.079,0.48c-0.304,0.094-0.633,0.178-1.054,0.251c-0.445,0.083-1.006,0.156-1.872,0.208
		c-0.844,0.063-2.017,0.094-3.068,0.094c-1.079,0.011-2.062-0.021-2.766-0.062c-0.701-0.042-1.1-0.094-1.428-0.147
		c-0.304-0.062-0.539-0.114-0.703-0.177c-0.399-0.156-0.656-0.25-0.866-0.679c-0.048-0.104-0.093-0.219-0.093-0.333
		c-0.282,0-0.562,0-0.844,0c-0.655,1.054-1.335,2.108-1.991,3.153c-0.257,0.375-0.679,0.897-0.328,1.283
		c0.046,0.052,0.116,0.104,0.187,0.157c0.094,0.063,0.21,0.114,0.352,0.177c0.14,0.062,0.351,0.125,0.609,0.177
		c0.257,0.063,0.61,0.125,1.078,0.188c0.493,0.063,1.125,0.116,2.084,0.167c0.96,0.042,2.271,0.073,3.958,0.063
		c1.711-0.011,3.843-0.063,5.318-0.146c1.476-0.094,2.341-0.209,3.045-0.334c0.702-0.135,1.24-0.26,1.71-0.407
		c0.467-0.146,0.865-0.292,1.241-0.47c0.701-0.323,1.287-0.688,1.966-1.295c0.328-0.292,0.681-0.636,1.103-1.137
		c0.399-0.501,0.889-1.148,1.334-1.816c3.537-5.501,7.099-11.021,10.659-16.511c0.116-0.198,0.234-0.397,0.303-0.521
		c0.118-0.21,0.118-0.21,0.141-0.283c0.163-0.25-0.141-0.574-0.443-0.626c-0.095-0.031-0.188-0.052-0.306-0.073
		c-0.305-0.053-0.749-0.074-1.219-0.074c-3.113,0-6.253,0-9.392,0c-1.57,0-3.186,0.094-4.521,0.271
		c-1.311,0.188-2.342,0.438-3.279,0.752c-0.937,0.303-1.757,0.658-2.575,1.106C134.146,47.807,133.347,48.329,132.53,49.007z
		 M138.034,50.823c0.703-0.605,1.241-0.887,1.779-1.137c0.306-0.136,0.633-0.24,1.007-0.344c0.375-0.094,0.82-0.178,1.381-0.23
		c0.563-0.052,1.243-0.083,1.922-0.083c1.195,0,2.39,0,3.585,0c-1.804,2.765-3.609,5.52-5.388,8.296
		c-0.188,0.282-0.446,0.543-0.891,0.814c-0.141,0.073-0.282,0.146-0.445,0.219c-0.188,0.063-0.375,0.136-0.608,0.198
		c-0.234,0.063-0.516,0.125-0.844,0.178c-0.351,0.062-0.75,0.115-1.288,0.146c-0.539,0.042-1.218,0.063-1.71,0.063
		c-0.515,0-0.865-0.032-1.147-0.073c-0.306-0.042-0.539-0.104-0.727-0.177c-0.211-0.073-0.376-0.157-0.493-0.251
		c-0.655-0.521-0.607-1.013-0.467-1.577c0.094-0.334,0.257-0.678,0.515-1.179c0.562-1.002,1.592-2.537,2.786-3.872
		C137.33,51.449,137.705,51.105,138.034,50.823z"/>
	<path fill="#FFFFFF" d="M174.011,59.329c-0.468,0.208-0.96,0.375-1.522,0.522c-0.563,0.146-1.218,0.271-2.249,0.354
		c-1.007,0.083-2.365,0.136-3.442,0.146c-1.054,0.01-1.829-0.021-2.39-0.052c-0.562-0.042-0.938-0.094-1.217-0.146
		c-0.304-0.063-0.516-0.115-0.681-0.178c-0.162-0.062-0.305-0.125-0.422-0.188c-0.257-0.146-0.492-0.438-0.516-0.71
		c-0.093-0.501,0.188-1.264,0.563-1.942c0.303-0.459,0.608-0.919,0.936-1.377c3.981,0,7.965,0,11.993,0
		c0.681,0,1.359-0.021,1.829-0.053c0.467-0.031,0.748-0.073,0.96-0.125c0.515-0.125,0.795-0.198,1.287-0.626
		c0.328-0.333,0.609-0.678,0.96-1.2c0.328-0.532,0.749-1.232,1.077-1.847c0.305-0.616,0.516-1.169,0.656-1.597
		c0.141-0.449,0.187-0.783,0.235-1.085c0.023-0.303,0.023-0.574-0.025-0.814c-0.069-0.449-0.21-0.835-0.539-1.231
		c-0.163-0.178-0.327-0.345-0.561-0.501c-0.234-0.157-0.493-0.313-0.82-0.449c-0.305-0.136-0.701-0.271-1.218-0.387
		c-0.492-0.115-1.078-0.219-1.851-0.293c-0.772-0.073-1.709-0.114-2.997-0.104c-1.266,0.012-2.856,0.083-4.122,0.219
		c-1.29,0.147-2.272,0.345-3.14,0.586c-0.866,0.229-1.641,0.501-2.39,0.845c-1.521,0.72-2.812,1.524-4.379,3.078
		c-0.82,0.804-1.735,1.837-2.577,2.954c-0.867,1.117-1.639,2.327-2.203,3.391c-0.583,1.065-0.96,1.953-1.194,2.725
		c-0.21,0.762-0.258,1.398-0.163,1.973c0.093,0.563,0.352,1.075,0.726,1.492c0.375,0.429,0.891,0.762,1.476,0.971
		c0.398,0.146,0.82,0.261,1.359,0.365c0.538,0.104,1.219,0.198,2.247,0.271c1.009,0.062,2.39,0.105,3.842,0.105
		c1.428,0,2.93-0.042,4.077-0.115c1.146-0.073,1.943-0.178,2.529-0.271c0.633-0.104,1.03-0.198,1.357-0.292
		c0.305-0.094,0.54-0.188,0.726-0.261c0.328-0.157,0.493-0.282,0.727-0.501c0.118-0.115,0.259-0.25,0.493-0.563
		c0.233-0.303,0.562-0.783,0.89-1.263c0.562-0.855,1.124-1.722,1.686-2.588c-0.211,0-0.422,0-0.633,0
		C174.971,58.86,174.503,59.12,174.011,59.329z M166.116,51.345c0.306-0.387,0.61-0.658,0.868-0.888
		c0.585-0.501,1.055-0.772,1.545-0.992c0.282-0.125,0.563-0.229,0.914-0.323c0.328-0.083,0.703-0.167,1.217-0.219
		c0.492-0.052,1.08-0.083,1.569-0.083c0.493-0.01,0.869,0.01,1.196,0.042c0.327,0.032,0.585,0.074,0.819,0.125
		c0.21,0.053,0.397,0.115,0.54,0.178c0.327,0.146,0.583,0.25,0.795,0.668c0.233,0.49,0.07,0.939-0.14,1.461
		c-0.165,0.365-0.444,0.866-0.798,1.398c-3.207,0-6.394,0-9.555,0C165.415,52.21,165.789,51.731,166.116,51.345z"/>
</g>
</svg>
